P2
88 80
4095
1520
1527
1680
1816
1896
1919
1983
2007
2059
2076
2115
2011
2083
2131
2096
2204
2155
2167
2255
2200
2208
2312
2288
2404
2400
2263
2348
2356
2375
2396
2440
2375
2304
2380
2447
2364
2423
2423
2387
2459
2407
2408
2439
2424
2464
2444
2464
2443
2463
2444
2440
2360
2448
2472
2484
2500
2479
2396
2371
2428
2307
2231
1983
1988
0
0
0
0
0
0
0
0
0
0
0
0
0
0
0
0
0
0
0
0
0
0
0
0
1856
1859
2031
2232
2256
2300
2307
2320
2360
2408
2408
2411
2419
2480
2439
2532
2527
2483
2596
2584
2628
2660
2636
2672
2743
2660
2708
2668
2723
2723
2748
2731
2691
2708
2728
2708
2736
2768
2711
2719
2751
2752
2711
2700
2740
2775
2727
2780
2787
2799
2768
2715
2688
2784
2783
2832
2788
2723
2676
2736
2636
2559
2344
2352
0
0
0
0
0
0
0
0
0
0
0
0
0
0
0
0
0
0
0
0
0
0
0
0
1967
1971
2239
2351
2444
2500
2547
2564
2607
2620
2643
2579
2592
2648
2644
2752
2723
2704
2807
2791
2783
2868
2847
2935
2876
2819
2871
2927
2900
2907
2980
2975
2896
2976
2967
2880
2943
2972
2888
2975
2955
2927
2968
2948
2963
3008
2935
2960
2956
2975
2991
2948
2984
2984
2987
3036
3003
2964
2907
2975
2819
2736
2556
2563
0
0
0
0
0
0
0
0
0
0
0
0
0
0
0
0
0
0
0
0
0
0
0
0
1935
1944
2311
2452
2499
2608
2640
2587
2651
2700
2684
2724
2716
2736
2763
2872
2856
2795
2904
2899
2883
2959
2971
2955
2984
2983
3072
2983
3020
3023
3027
3028
3016
3055
3068
3000
3047
3064
2975
3055
3040
3011
3024
3048
3052
3056
3015
3047
3087
3088
3079
3067
3111
3088
3055
3135
3155
3028
3036
3071
2968
2855
2563
2571
0
0
0
0
0
0
0
0
0
0
0
0
0
0
0
0
0
0
0
0
0
0
0
0
1911
1915
2236
2480
2503
2496
2620
2568
2680
2600
2660
2679
2635
2740
2707
2747
2875
2811
2888
2884
2911
2888
2895
2943
2895
2915
2880
2996
2944
2983
2892
3012
2972
3076
3024
3015
3099
3051
3011
3004
3084
3011
3031
3007
3036
2992
3015
3051
3108
3075
3056
3084
3079
3048
3063
3080
3064
3072
3092
3015
2952
2772
2596
2600
0
0
0
0
0
0
0
0
0
0
0
0
0
0
0
0
0
0
0
0
0
0
0
0
1992
1999
2312
2487
2484
2523
2575
2564
2684
2619
2604
2632
2663
2783
2751
2731
2788
2812
2796
2871
2823
2896
2880
2888
2847
2859
2879
2972
2956
2920
2884
2979
2960
2991
3052
2952
3064
3015
3012
2995
3027
2976
3023
3004
2999
2980
2968
3003
3048
3028
3031
3088
3108
3048
3008
3036
3055
3000
3028
2931
2880
2780
2563
2567
0
0
0
0
0
0
0
0
0
0
0
0
0
0
0
0
0
0
0
0
0
0
0
0
1983
1991
2352
2468
2507
2540
2547
2652
2659
2683
2731
2675
2696
2804
2735
2747
2836
2823
2868
2876
2907
2876
2875
2923
2952
2932
2892
2943
2927
2980
3000
3028
2888
3044
3059
3003
3112
3027
3067
3051
3076
3012
3007
3067
3043
3031
3084
3100
3084
3083
3059
3087
3111
3080
3055
3031
3100
3063
3056
2992
2948
2783
2612
2616
0
0
0
0
0
0
0
0
0
0
0
0
0
0
0
0
0
0
0
0
0
0
0
0
1984
1995
2236
2456
2475
2515
2592
2620
2656
2616
2723
2664
2652
2787
2743
2763
2736
2788
2816
2828
2823
2900
2876
2911
2900
2908
2892
2975
2911
2979
2940
3051
2919
3011
3020
3028
3075
2984
2980
3007
3027
3004
3015
3032
3084
2964
3031
3043
3056
3083
3012
3039
3108
3004
3051
3008
3084
3024
3044
3000
2920
2784
2551
2555
0
0
0
0
0
0
0
0
0
0
0
0
0
0
0
0
0
0
0
0
0
0
0
0
2000
2007
2224
2435
2476
2543
2519
2628
2599
2620
2683
2664
2684
2719
2695
2736
2779
2759
2811
2807
2847
2856
2847
2896
2868
2908
3028
2891
2936
2912
2944
2980
2924
2924
2940
2972
2992
2935
2919
3007
2896
2975
3027
2971
3032
3000
3044
3084
2988
3048
2939
3024
3007
2992
2964
2947
3032
2975
2964
2991
2847
2799
2551
2555
0
0
0
0
0
0
0
0
0
0
0
0
0
0
0
0
0
0
0
0
0
0
0
0
1952
1960
2231
2399
2427
2539
2516
2604
2648
2628
2659
2703
2648
2720
2696
2724
2739
2719
2796
2716
2847
2860
2840
2851
2912
2867
2956
2868
2868
2871
2963
2896
2871
2900
2936
2856
2936
2892
2888
2932
2932
2944
2971
2975
3036
2952
2995
3055
2995
3044
2887
2943
3011
2940
2944
2884
2971
2959
2868
2895
2847
2700
2551
2552
0
0
0
0
0
0
0
0
0
0
0
0
0
0
0
0
0
0
0
0
0
0
0
0
1992
1999
2244
2436
2472
2548
2548
2611
2620
2631
2671
2720
2695
2724
2659
2755
2748
2780
2819
2768
2836
2847
2836
2939
2911
2891
2979
2955
2895
2900
2931
2988
2891
2896
2971
2972
2991
2971
2979
2988
2972
2972
3072
2976
3051
3004
2992
3048
3052
3088
2956
2952
3032
2983
2959
2943
2971
2967
2919
2948
2852
2740
2604
2608
0
0
0
0
0
0
0
0
0
0
0
0
0
0
0
0
0
0
0
0
0
0
0
0
1991
1995
2275
2403
2452
2487
2548
2564
2628
2619
2628
2643
2623
2727
2679
2712
2787
2767
2756
2832
2795
2860
2844
2872
2864
2876
2976
2904
2856
2899
2931
2964
2924
2940
2984
2923
3007
2979
2935
3003
2923
2964
2972
2988
3019
2944
2992
3039
2972
3012
2951
2987
2988
2996
2948
2887
2983
2936
2839
2932
2827
2732
2532
2539
0
0
0
0
0
0
0
0
0
0
0
0
0
0
0
0
0
0
0
0
0
0
0
0
1936
1940
2236
2383
2399
2464
2560
2527
2571
2527
2588
2612
2548
2687
2703
2659
2696
2772
2800
2727
2812
2787
2807
2848
2864
2868
2896
2911
2875
2924
2871
2992
2976
2979
2968
3016
2947
2927
2963
2972
2996
3036
3036
3012
3007
2924
3024
3031
2967
2995
2996
3020
2968
2944
2904
3008
3031
3028
2983
2919
2796
2640
2476
2483
0
0
0
0
0
0
0
0
0
0
0
0
0
0
0
0
0
0
0
0
0
0
0
0
2015
2019
2251
2388
2484
2508
2535
2540
2643
2555
2571
2643
2579
2676
2703
2708
2719
2796
2740
2699
2835
2776
2851
2871
2887
2883
2875
2844
2900
2935
2935
3000
2900
2951
2964
3008
2988
3015
2975
2947
2984
2976
2984
2939
2995
2899
2968
2980
2908
2980
2984
2975
2931
2967
2916
2960
2911
3011
2940
2896
2808
2680
2476
2483
0
0
0
0
0
0
0
0
0
0
0
0
0
0
0
0
0
0
0
0
0
0
0
0
1984
1988
2232
2448
2439
2535
2587
2540
2648
2651
2676
2656
2616
2703
2700
2736
2767
2756
2819
2775
2860
2820
2856
2844
2916
2952
2951
2951
2924
2955
2923
2996
2948
2983
3024
2992
2980
2999
3023
3043
3047
2991
3015
2980
3032
2948
3031
3008
2992
3048
3027
3007
2995
3028
2920
2983
2952
3031
3000
2980
2868
2703
2508
2512
0
0
0
0
0
0
0
0
0
0
0
0
0
0
0
0
0
0
0
0
0
0
0
0
1964
1971
2215
2419
2419
2484
2504
2507
2543
2587
2604
2660
2604
2699
2628
2707
2724
2751
2799
2748
2772
2767
2820
2807
2875
2919
2903
2879
2964
2939
2887
2999
2911
2960
3024
2975
2952
2936
3011
2979
2983
2999
2980
2935
2951
2964
2960
3036
2984
3007
2976
2971
2979
2999
2935
2987
2991
3035
3003
2939
2828
2691
2463
2471
0
0
0
0
0
0
0
0
0
0
0
0
0
0
0
0
0
0
0
0
0
0
0
0
1880
1888
2191
2396
2364
2515
2484
2495
2556
2655
2607
2632
2624
2623
2580
2644
2676
2719
2719
2711
2699
2751
2771
2792
2891
2860
2948
2808
2900
2879
2851
2923
2847
2899
2840
3003
2967
2927
2911
2996
2963
2940
2932
2971
2980
2936
2948
2920
2987
2972
2956
2964
2939
2928
2999
2915
2892
2919
2852
2875
2832
2751
2432
2436
0
0
0
0
0
0
0
0
0
0
0
0
0
0
0
0
0
0
0
0
0
0
0
0
1880
1884
2236
2371
2419
2580
2492
2499
2524
2600
2624
2612
2652
2648
2583
2655
2691
2715
2743
2748
2792
2811
2848
2796
2816
2860
2904
2820
2888
2879
2823
2896
2843
2908
2883
3007
2911
2896
2879
2928
2911
2948
2992
2892
2936
2919
2923
2911
2951
2975
2904
2928
2888
2912
2964
2916
2916
2964
2859
2887
2764
2704
2511
2516
0
0
0
0
0
0
0
0
0
0
0
0
0
0
0
0
0
0
0
0
0
0
0
0
1928
1936
2272
2392
2444
2600
2563
2492
2555
2640
2671
2620
2628
2723
2692
2683
2760
2724
2800
2759
2780
2828
2764
2843
2876
2871
2892
2871
2932
2935
2900
2919
2856
2916
2892
3015
2975
2940
2940
2980
2919
2931
3036
2983
3003
2940
2992
3000
3008
3008
2996
3060
2975
2960
3036
2936
2939
2960
2916
2959
2840
2712
2552
2555
0
0
0
0
0
0
0
0
0
0
0
0
0
0
0
0
0
0
0
0
0
0
0
0
1859
1864
2291
2384
2472
2544
2511
2484
2512
2616
2663
2619
2588
2651
2652
2664
2732
2695
2759
2676
2699
2771
2811
2800
2812
2847
2900
2864
2856
2887
2868
2892
2864
2923
2859
2951
2919
2864
2867
2939
2868
2923
2964
2943
2947
2928
2963
2876
2936
2987
2836
3000
3032
2919
3008
2868
2939
2924
2912
2896
2800
2723
2455
2459
0
0
0
0
0
0
0
0
0
0
0
0
0
0
0
0
0
0
0
0
0
0
0
0
1911
1915
2187
2372
2351
2432
2532
2515
2528
2523
2548
2624
2631
2635
2647
2740
2612
2656
2720
2700
2816
2807
2735
2799
2832
2820
2908
2815
2843
2928
2911
2835
2840
2860
2916
2912
2963
2987
2943
2900
2883
3060
2940
3020
2988
2960
2992
2975
2847
3024
2947
2960
2995
2959
2948
2972
2884
2927
2940
2855
2828
2731
2524
2527
0
0
0
0
0
0
0
0
0
0
0
0
0
0
0
0
0
0
0
0
0
0
0
0
1947
1951
2231
2383
2415
2408
2555
2531
2563
2576
2588
2604
2655
2636
2647
2684
2667
2644
2739
2723
2771
2800
2767
2788
2891
2836
2847
2900
2919
2884
2888
2907
2811
2871
2912
2967
2859
2963
2952
2872
2875
2983
2868
3035
2887
2947
2959
2963
2863
2995
2919
2928
3004
2936
2928
2912
2896
2984
2936
2848
2799
2743
2551
2555
0
0
0
0
0
0
0
0
0
0
0
0
0
0
0
0
0
0
0
0
0
0
0
0
1988
1995
2220
2448
2376
2480
2588
2535
2599
2571
2595
2623
2672
2708
2680
2708
2759
2676
2751
2788
2827
2824
2796
2840
2880
2864
2956
2875
2820
2903
2959
2956
2908
2892
2956
2976
2948
3015
2911
2919
2915
2959
2971
2992
2943
2964
3007
3004
2935
3012
2947
2968
3072
2992
2972
2971
2932
2948
2964
2852
2883
2720
2575
2579
0
0
0
0
0
0
0
0
0
0
0
0
0
0
0
0
0
0
0
0
0
0
0
0
1983
1988
2243
2379
2427
2439
2559
2515
2535
2555
2580
2612
2664
2687
2644
2655
2767
2664
2767
2763
2859
2816
2800
2859
2851
2812
2900
2888
2916
2916
2911
2928
2896
2892
2932
2944
2956
2936
2904
2936
2924
2992
2940
2951
2928
2944
2979
2983
2924
2984
2980
2971
3012
2935
2972
3035
2924
2972
2899
2903
2828
2708
2484
2488
0
0
0
0
0
0
0
0
0
0
0
0
0
0
0
0
0
0
0
0
0
0
0
0
1943
1944
2179
2300
2324
2427
2344
2479
2435
2467
2552
2583
2552
2631
2579
2612
2740
2668
2679
2692
2743
2784
2731
2832
2820
2808
2807
2800
2788
2828
2892
2895
2919
2931
2867
2835
2891
2896
2899
2835
2884
2871
2888
2839
2876
2924
2940
2872
2916
2948
2915
2936
2964
2947
2875
2919
2884
2904
2820
2851
2752
2632
2343
2351
0
0
0
0
0
0
0
0
0
0
0
0
0
0
0
0
0
0
0
0
0
0
0
0
1928
1931
2171
2335
2356
2463
2440
2492
2512
2499
2556
2572
2544
2647
2631
2667
2708
2700
2684
2783
2695
2768
2751
2804
2792
2787
2828
2776
2772
2815
2856
2892
2856
2916
2852
2855
2907
2887
2931
2840
2876
2879
2891
2840
2892
2863
2948
2944
2892
2932
2915
2911
2935
2948
2900
2867
2884
2864
2768
2816
2788
2624
2372
2379
0
0
0
0
0
0
0
0
0
0
0
0
0
0
0
0
0
0
0
0
0
0
0
0
2003
2007
2252
2340
2355
2487
2436
2487
2539
2527
2592
2648
2571
2668
2660
2691
2679
2719
2743
2792
2744
2867
2720
2828
2847
2868
2859
2836
2828
2864
2896
2904
2864
2928
2887
2916
2923
2951
2959
2872
2935
2923
2931
2964
2935
2895
3012
2924
2988
2975
2960
2975
3031
2987
2940
2900
2983
2948
2835
2896
2780
2631
2424
2431
0
0
0
0
0
0
0
0
0
0
0
0
0
0
0
0
0
0
0
0
0
0
0
0
1891
1892
2175
2331
2307
2392
2415
2496
2492
2539
2591
2612
2527
2643
2647
2600
2704
2644
2731
2696
2736
2775
2711
2816
2768
2812
2844
2839
2792
2871
2864
2920
2880
2903
2876
2872
2920
2899
2887
2883
2907
2875
2904
2884
2903
2899
3020
2928
2879
2919
2891
2907
2971
2936
2872
2875
2907
2951
2816
2887
2767
2684
2395
2400
0
0
0
0
0
0
0
0
0
0
0
0
0
0
0
0
0
0
0
0
0
0
0
0
1867
1872
2131
2228
2308
2396
2415
2448
2512
2511
2568
2564
2536
2644
2612
2631
2655
2672
2704
2727
2780
2787
2735
2743
2775
2795
2764
2804
2848
2855
2916
2887
2860
2864
2900
2852
2963
2887
2876
2931
2887
2915
2940
2883
2860
2904
2959
3000
2955
2888
3000
2920
2963
2968
3007
2964
2980
2992
2796
2892
2796
2643
2439
2444
0
0
0
0
0
0
0
0
0
0
0
0
0
0
0
0
0
0
0
0
0
0
0
0
1867
1867
2216
2347
2379
2447
2435
2512
2552
2523
2639
2543
2568
2660
2648
2628
2684
2663
2751
2736
2779
2812
2739
2807
2868
2820
2783
2788
2812
2831
2871
2892
2916
2852
2924
2880
2956
2899
2875
2948
2943
2891
2964
2848
2848
2972
2944
2960
2887
2960
2935
2960
2964
2975
2972
2899
2964
2964
2823
2832
2827
2652
2428
2436
0
0
0
0
0
0
0
0
0
0
0
0
0
0
0
0
0
0
0
0
0
0
0
0
1931
1939
2231
2315
2380
2487
2520
2487
2536
2552
2600
2588
2612
2727
2643
2667
2727
2692
2720
2764
2828
2791
2719
2775
2811
2820
2863
2815
2843
2820
2900
2859
2864
2935
2960
2883
2967
2924
2931
3027
2899
2955
2991
2924
2924
2951
2940
2975
2967
2976
2931
2983
3028
2984
2967
3008
3011
3080
2860
2932
2871
2676
2432
2440
0
0
0
0
0
0
0
0
0
0
0
0
0
0
0
0
0
0
0
0
0
0
0
0
1872
1875
2172
2248
2392
2460
2463
2507
2568
2544
2571
2559
2568
2695
2652
2652
2712
2655
2756
2760
2751
2804
2764
2832
2783
2820
2848
2775
2851
2880
2916
2907
2867
2863
2915
2940
2939
2928
2955
2992
2951
2935
2932
2932
2972
3020
2936
2944
2983
2999
2967
2975
2944
2972
2956
2923
2976
3039
2843
2867
2831
2672
2391
2399
0
0
0
0
0
0
0
0
0
0
0
0
0
0
0
0
0
0
0
0
0
0
0
0
1844
1847
2139
2284
2308
2368
2435
2436
2464
2484
2508
2455
2568
2599
2555
2544
2639
2643
2724
2688
2651
2727
2691
2731
2836
2783
2796
2788
2827
2839
2840
2871
2855
2951
2920
2804
2939
2863
2875
2843
2884
2908
2903
2844
2952
2847
2880
2980
2939
2935
2864
2899
2960
2863
2923
2840
2852
2924
2887
2808
2856
2624
2419
2423
0
0
0
0
0
0
0
0
0
0
0
0
0
0
0
0
0
0
0
0
0
0
0
0
1900
1903
2120
2343
2352
2448
2479
2459
2491
2555
2540
2556
2591
2620
2595
2595
2660
2648
2740
2732
2652
2776
2719
2743
2827
2803
2835
2804
2828
2875
2852
2872
2851
2940
2927
2820
2908
2851
2912
2895
2879
2915
2912
2908
2900
2851
2895
2876
2955
2928
2863
2907
2928
2819
2892
2803
2824
2948
2836
2836
2795
2631
2376
2380
0
0
0
0
0
0
0
0
0
0
0
0
0
0
0
0
0
0
0
0
0
0
0
0
1903
1907
2231
2384
2339
2412
2519
2536
2491
2532
2508
2571
2604
2647
2635
2667
2711
2684
2783
2724
2752
2823
2780
2795
2856
2815
2860
2812
2868
2916
2919
2912
2892
2932
2992
2868
2971
2884
2919
2928
2908
2955
2951
2896
2939
2804
2975
2983
2996
3000
2963
2919
2956
2864
2975
2843
2904
2927
2928
2867
2855
2679
2443
2447
0
0
0
0
0
0
0
0
0
0
0
0
0
0
0
0
0
0
0
0
0
0
0
0
1828
1828
2107
2352
2360
2427
2483
2408
2488
2532
2548
2575
2607
2588
2584
2608
2624
2695
2716
2767
2676
2784
2756
2772
2831
2804
2888
2800
2876
2835
2860
2888
2896
2904
2891
2847
2895
2851
2928
2876
2923
2907
2908
2855
2972
2860
2932
2940
2928
2944
2904
2915
2936
2884
2935
2847
2867
2911
2876
2831
2820
2695
2452
2456
0
0
0
0
0
0
0
0
0
0
0
0
0
0
0
0
0
0
0
0
0
0
0
0
1851
1852
2095
2248
2295
2455
2384
2439
2456
2463
2480
2532
2571
2607
2591
2627
2571
2604
2652
2724
2739
2716
2747
2827
2803
2768
2820
2800
2876
2843
2747
2843
2851
2804
2907
2907
2920
2839
2871
2876
2879
2936
2928
2896
2936
2883
2899
2947
2896
3007
2899
2956
2952
2868
2988
2883
2803
2879
2816
2760
2739
2655
2411
2419
0
0
0
0
0
0
0
0
0
0
0
0
0
0
0
0
0
0
0
0
0
0
0
0
1839
1840
2148
2340
2335
2480
2448
2499
2571
2516
2504
2572
2588
2592
2564
2631
2668
2596
2684
2763
2687
2776
2752
2807
2731
2775
2795
2808
2911
2819
2832
2871
2883
2856
2919
2959
2940
2876
2888
2911
2911
2936
2904
2939
2887
2840
2936
2980
2860
2987
2900
2919
2939
2884
2975
2872
2840
2836
2852
2772
2768
2632
2380
2388
0
0
0
0
0
0
0
0
0
0
0
0
0
0
0
0
0
0
0
0
0
0
0
0
1887
1887
2131
2343
2359
2432
2419
2455
2551
2503
2596
2627
2591
2635
2615
2700
2687
2628
2735
2748
2760
2743
2768
2896
2768
2800
2780
2831
2851
2867
2880
2892
2912
2864
2943
2987
2975
2948
2928
2968
2904
2955
2919
2932
2932
2951
2940
2960
2911
3043
2991
2951
2972
2868
3028
2908
2836
2892
2863
2812
2819
2624
2395
2403
0
0
0
0
0
0
0
0
0
0
0
0
0
0
0
0
0
0
0
0
0
0
0
0
1792
1792
2164
2307
2344
2404
2416
2491
2528
2431
2552
2603
2567
2647
2608
2647
2631
2636
2664
2696
2727
2768
2736
2807
2776
2867
2824
2831
2871
2868
2827
2900
2907
2843
2936
2867
2983
2884
2916
2944
2899
2907
2927
2932
2920
2915
2923
2931
2895
3007
2984
2911
2975
2891
2983
2911
2863
2911
2844
2768
2736
2620
2428
2436
0
0
0
0
0
0
0
0
0
0
0
0
0
0
0
0
0
0
0
0
0
0
0
0
1860
1863
2067
2275
2291
2344
2423
2387
2463
2455
2492
2500
2575
2559
2624
2660
2608
2752
2663
2660
2747
2699
2724
2804
2695
2755
2804
2835
2823
2795
2811
2900
2843
2900
2812
2871
2916
2920
2875
2940
2908
2860
2855
2923
2959
2896
2839
2920
2855
2984
2891
2875
2904
2896
2940
2904
2847
2820
2764
2868
2719
2580
2387
2388
0
0
0
0
0
0
0
0
0
0
0
0
0
0
0
0
0
0
0
0
0
0
0
0
1896
1896
2135
2284
2319
2408
2476
2432
2500
2527
2588
2540
2652
2628
2624
2691
2611
2760
2663
2736
2759
2707
2759
2820
2796
2816
2795
2859
2800
2799
2780
2899
2863
2907
2879
2872
2916
2888
2899
2928
2955
2908
2868
2948
2927
2860
2856
2928
2856
3016
2864
2828
2920
2924
2891
2860
2940
2816
2743
2855
2748
2580
2412
2416
0
0
0
0
0
0
0
0
0
0
0
0
0
0
0
0
0
0
0
0
0
0
0
0
1943
1947
2168
2360
2372
2463
2512
2479
2547
2492
2591
2624
2608
2719
2700
2679
2668
2811
2711
2687
2755
2732
2815
2840
2791
2808
2856
2867
2876
2872
2863
2907
2907
2936
2900
2975
2899
2967
2996
2955
2948
2947
2931
2975
2964
2907
2892
2948
2919
2996
2884
2936
2967
2975
2915
2916
2924
2820
2792
2867
2844
2651
2443
2444
0
0
0
0
0
0
0
0
0
0
0
0
0
0
0
0
0
0
0
0
0
0
0
0
1940
1944
2132
2348
2471
2515
2528
2539
2572
2576
2648
2651
2676
2704
2704
2728
2735
2808
2752
2768
2792
2820
2828
2872
2867
2887
2883
2911
2860
2896
2852
3016
2975
3003
2968
2963
2956
2992
2940
3044
3020
3028
2948
3000
3035
2936
2959
3011
2963
3048
2960
2940
3004
2992
2975
2964
2980
2935
2860
2948
2823
2739
2455
2459
0
0
0
0
0
0
0
0
0
0
0
0
0
0
0
0
0
0
0
0
0
0
0
0
1756
1756
2012
2264
2207
2315
2343
2352
2411
2343
2451
2476
2448
2488
2527
2483
2548
2540
2580
2576
2620
2663
2596
2639
2664
2631
2748
2696
2747
2724
2687
2768
2683
2727
2752
2784
2744
2775
2823
2772
2847
2824
2795
2827
2780
2735
2852
2863
2780
2791
2791
2883
2763
2831
2839
2740
2756
2764
2700
2755
2587
2524
2328
2332
0
0
0
0
0
0
0
0
0
0
0
0
0
0
0
0
0
0
0
0
0
0
0
0
1816
1819
2116
2328
2347
2352
2423
2416
2487
2488
2567
2575
2488
2576
2639
2603
2664
2676
2687
2628
2703
2747
2671
2772
2736
2752
2791
2775
2816
2824
2776
2820
2735
2803
2851
2843
2804
2823
2871
2856
2851
2864
2891
2859
2819
2864
2919
2900
2788
2923
2863
2948
2804
2851
2840
2871
2780
2828
2815
2751
2715
2543
2424
2428
0
0
0
0
0
0
0
0
0
0
0
0
0
0
0
0
0
0
0
0
0
0
0
0
1851
1851
2123
2303
2332
2448
2479
2371
2556
2439
2567
2591
2532
2556
2631
2580
2615
2647
2759
2608
2704
2768
2683
2740
2800
2715
2824
2788
2860
2827
2815
2867
2783
2788
2887
2856
2915
2883
2867
2891
2888
2923
2884
2916
2839
2904
2907
2908
2852
2896
2855
3016
2839
2907
2940
2852
2844
2851
2804
2788
2688
2628
2415
2419
0
0
0
0
0
0
0
0
0
0
0
0
0
0
0
0
0
0
0
0
0
0
0
0
1831
1832
2131
2343
2292
2427
2411
2395
2504
2452
2583
2571
2524
2584
2563
2595
2631
2639
2716
2691
2724
2819
2751
2764
2751
2711
2795
2847
2799
2832
2764
2823
2756
2780
2907
2860
2872
2888
2904
2844
2879
2888
2864
2860
2852
2867
2887
2920
2852
2912
2860
2952
2852
2887
2955
2887
2815
2844
2847
2819
2735
2611
2323
2328
0
0
0
0
0
0
0
0
0
0
0
0
0
0
0
0
0
0
0
0
0
0
0
0
1840
1843
2092
2264
2347
2404
2412
2427
2484
2527
2456
2543
2596
2560
2491
2651
2640
2652
2687
2671
2632
2715
2716
2723
2711
2719
2739
2880
2803
2759
2836
2896
2827
2812
2848
2835
2908
2900
2903
2883
2867
2876
2892
2888
2891
2843
2887
2907
2848
2819
2875
2884
2939
2911
2864
2927
2871
2928
2772
2751
2775
2596
2323
2328
0
0
0
0
0
0
0
0
0
0
0
0
0
0
0
0
0
0
0
0
0
0
0
0
1847
1847
2136
2303
2404
2472
2491
2527
2504
2567
2540
2608
2640
2588
2611
2648
2664
2732
2695
2719
2704
2791
2708
2748
2755
2764
2751
2851
2795
2771
2815
2915
2787
2855
2804
2820
2900
2884
2908
2859
2864
2936
2787
2883
2927
2860
2864
2947
2923
2844
2839
2895
2899
2912
2919
2939
2884
2875
2795
2736
2803
2612
2376
2380
0
0
0
0
0
0
0
0
0
0
0
0
0
0
0
0
0
0
0
0
0
0
0
0
1895
1896
2115
2308
2355
2487
2516
2447
2587
2624
2507
2639
2595
2628
2600
2732
2640
2751
2724
2764
2727
2804
2780
2803
2792
2756
2784
2900
2839
2844
2884
2896
2859
2875
2892
2904
2940
2900
2932
2920
2928
2980
2908
2935
2948
2920
2943
3016
2912
2888
2856
2999
3000
3044
2900
2956
2912
2939
2828
2783
2796
2639
2424
2432
0
0
0
0
0
0
0
0
0
0
0
0
0
0
0
0
0
0
0
0
0
0
0
0
1860
1863
2119
2292
2408
2415
2463
2428
2480
2536
2544
2564
2608
2611
2580
2687
2651
2647
2680
2652
2724
2704
2708
2791
2772
2811
2780
2880
2792
2851
2824
2891
2847
2840
2864
2884
2872
2824
2883
2928
2864
2891
2883
2868
2847
2908
2903
2939
2940
2871
2900
2900
2960
2923
2884
2927
2835
2935
2783
2796
2780
2623
2424
2432
0
0
0
0
0
0
0
0
0
0
0
0
0
0
0
0
0
0
0
0
0
0
0
0
1867
1864
2175
2335
2323
2444
2468
2467
2472
2555
2539
2571
2532
2632
2584
2620
2683
2672
2691
2728
2716
2772
2700
2820
2804
2856
2800
2767
2800
2927
2815
2875
2887
2939
2923
2796
2956
2992
2879
2892
2928
2900
2876
2956
2955
2924
2983
2964
2927
3016
2852
3071
2960
2880
2988
2952
2887
2947
2871
2884
2791
2635
2464
2468
0
0
0
0
0
0
0
0
0
0
0
0
0
0
0
0
0
0
0
0
0
0
0
0
1924
1924
2136
2367
2355
2411
2479
2495
2479
2559
2524
2572
2596
2663
2623
2680
2715
2731
2704
2720
2768
2724
2748
2815
2811
2807
2756
2787
2799
2847
2820
2839
2823
2904
2931
2788
2920
2943
2907
2932
2888
2932
2871
2939
2931
2892
2955
2964
2916
2975
2867
3004
2987
2852
3044
3000
2868
2883
2879
2848
2831
2687
2436
2440
0
0
0
0
0
0
0
0
0
0
0
0
0
0
0
0
0
0
0
0
0
0
0
0
1915
1916
2216
2356
2371
2479
2484
2483
2520
2635
2551
2608
2547
2712
2564
2740
2732
2700
2688
2719
2732
2828
2747
2832
2860
2784
2856
2804
2775
2896
2855
2908
2860
2947
2955
2816
2948
2988
2947
2908
2948
2935
2880
2959
2944
2907
2979
3040
2975
2948
2924
3028
2959
2911
2975
2995
2939
2984
2884
2871
2776
2660
2435
2439
0
0
0
0
0
0
0
0
0
0
0
0
0
0
0
0
0
0
0
0
0
0
0
0
1852
1852
2248
2339
2371
2388
2479
2491
2468
2499
2531
2587
2500
2639
2620
2647
2684
2663
2744
2687
2731
2775
2716
2812
2819
2811
2823
2796
2855
2811
2784
2832
2836
2879
2935
2828
2931
2908
2891
2900
2892
2888
2859
2932
2888
2871
2900
2932
2852
2956
2888
2963
2947
2932
2988
2899
2896
2923
2835
2804
2828
2652
2436
2436
0
0
0
0
0
0
0
0
0
0
0
0
0
0
0
0
0
0
0
0
0
0
0
0
1915
1915
2179
2275
2319
2399
2324
2408
2472
2440
2480
2607
2528
2612
2507
2607
2608
2600
2684
2711
2672
2667
2756
2759
2700
2831
2832
2764
2828
2775
2844
2831
2775
2804
2836
2827
2907
2831
2847
2863
2911
2863
2887
2847
2919
2888
2931
2871
2904
2975
2943
2943
2928
2892
2935
2900
2908
2904
2839
2808
2740
2604
2471
2472
0
0
0
0
0
0
0
0
0
0
0
0
0
0
0
0
0
0
0
0
0
0
0
0
1940
1939
2203
2292
2375
2436
2423
2503
2500
2435
2527
2527
2580
2640
2539
2687
2695
2672
2691
2700
2743
2735
2755
2768
2735
2796
2827
2767
2856
2819
2811
2864
2768
2828
2760
2820
2867
2792
2831
2879
2875
2815
2904
2875
2908
2908
2927
2892
2955
2900
2967
2959
2911
2867
2939
2872
2908
2863
2799
2811
2759
2655
2396
2399
0
0
0
0
0
0
0
0
0
0
0
0
0
0
0
0
0
0
0
0
0
0
0
0
1928
1927
2207
2319
2380
2508
2391
2488
2540
2476
2552
2572
2564
2655
2563
2700
2683
2739
2723
2752
2700
2787
2796
2831
2752
2816
2927
2852
2812
2760
2824
2847
2799
2847
2819
2864
2944
2851
2815
2919
2864
2919
2895
2876
2923
2931
2900
2904
2911
2928
2955
2924
2943
2943
2940
2895
2940
2908
2803
2832
2827
2672
2487
2491
0
0
0
0
0
0
0
0
0
0
0
0
0
0
0
0
0
0
0
0
0
0
0
0
1851
1848
2172
2312
2412
2447
2328
2444
2539
2444
2524
2547
2512
2619
2583
2548
2663
2652
2739
2675
2616
2739
2728
2756
2756
2815
2860
2859
2852
2768
2812
2808
2776
2804
2807
2835
2832
2835
2852
2863
2892
2868
2864
2876
2924
2876
2911
2855
2919
2935
2891
2943
2880
2916
2943
2912
2896
2883
2772
2847
2791
2667
2432
2439
0
0
0
0
0
0
0
0
0
0
0
0
0
0
0
0
0
0
0
0
0
0
0
0
1815
1812
2116
2288
2339
2420
2399
2428
2476
2507
2512
2544
2516
2623
2600
2600
2655
2703
2671
2667
2704
2680
2735
2819
2843
2791
2871
2783
2780
2772
2815
2956
2864
2904
2847
2840
2820
2875
2875
2887
2848
2920
2859
2852
2907
2908
2940
2960
2956
2923
2975
2943
2996
2928
3011
2903
2919
2907
2891
2911
2855
2640
2452
2456
0
0
0
0
0
0
0
0
0
0
0
0
0
0
0
0
0
0
0
0
0
0
0
0
1868
1867
2175
2336
2324
2484
2435
2467
2483
2519
2527
2607
2543
2604
2619
2607
2691
2675
2676
2751
2748
2716
2731
2796
2791
2795
2848
2804
2820
2823
2868
2884
2776
2851
2867
2848
2879
2852
2863
2843
2828
2915
2887
2876
2884
2928
2903
2952
2871
2924
2915
2960
2947
2935
2971
2939
2924
2908
2876
2915
2784
2652
2448
2452
0
0
0
0
0
0
0
0
0
0
0
0
0
0
0
0
0
0
0
0
0
0
0
0
1904
1904
2163
2368
2391
2411
2440
2471
2543
2587
2535
2592
2591
2679
2655
2664
2747
2716
2716
2752
2735
2735
2776
2847
2832
2796
2847
2899
2855
2927
2852
2960
2888
2883
2927
2956
2987
2871
2944
2919
2888
2943
2847
2888
2904
2940
2959
2992
2888
2956
2944
3011
2956
3027
2979
2920
2956
2903
2952
2904
2824
2655
2479
2483
0
0
0
0
0
0
0
0
0
0
0
0
0
0
0
0
0
0
0
0
0
0
0
0
1860
1860
2167
2311
2327
2399
2467
2415
2503
2527
2511
2583
2548
2647
2572
2672
2663
2664
2688
2755
2740
2719
2768
2836
2844
2803
2848
2835
2808
2847
2819
2960
2880
2867
2887
2911
2895
2915
2876
2924
2908
2968
2844
2859
2923
2928
2944
3000
2943
2940
2943
2975
2960
2960
2984
2956
2923
2883
2887
2851
2791
2608
2476
2479
0
0
0
0
0
0
0
0
0
0
0
0
0
0
0
0
0
0
0
0
0
0
0
0
1852
1851
2052
2327
2327
2431
2403
2424
2512
2464
2567
2515
2551
2572
2612
2620
2711
2652
2780
2744
2747
2779
2716
2796
2780
2787
2820
2796
2863
2864
2815
2844
2727
2867
2788
2839
2839
2824
2832
2936
2899
2883
2851
2827
2919
2919
2955
2840
2852
3003
2847
2960
2919
2943
2980
2839
2884
2951
2896
2836
2783
2648
2432
2439
0
0
0
0
0
0
0
0
0
0
0
0
0
0
0
0
0
0
0
0
0
0
0
0
1880
1883
2127
2307
2375
2451
2483
2427
2524
2519
2575
2567
2528
2644
2651
2668
2716
2692
2752
2771
2755
2779
2776
2756
2823
2759
2872
2768
2836
2847
2852
2844
2843
2832
2824
2843
2816
2804
2815
2896
2836
2872
2791
2887
2924
2904
2919
2847
2892
2999
2848
2924
2920
2936
2951
2843
2839
2891
2872
2811
2756
2635
2408
2412
0
0
0
0
0
0
0
0
0
0
0
0
0
0
0
0
0
0
0
0
0
0
0
0
1859
1860
2128
2396
2352
2467
2483
2480
2528
2516
2640
2563
2571
2627
2640
2664
2731
2695
2779
2820
2851
2819
2800
2831
2800
2772
2883
2779
2884
2868
2872
2888
2816
2835
2844
2899
2827
2788
2879
2892
2872
2891
2919
2903
2951
2947
3020
2924
2856
3059
2884
2944
2956
2908
2963
2904
2923
2939
2927
2823
2812
2655
2476
2480
0
0
0
0
0
0
0
0
0
0
0
0
0
0
0
0
0
0
0
0
0
0
0
0
1863
1863
2176
2355
2332
2460
2519
2456
2523
2552
2544
2588
2568
2600
2588
2647
2700
2639
2751
2756
2751
2783
2771
2831
2828
2776
2864
2827
2863
2800
2848
2872
2824
2851
2844
2887
2859
2815
2883
2860
2867
2888
2832
2907
2924
2932
2964
2860
2892
2955
2887
2915
2908
2907
2947
2868
2903
2903
2859
2836
2812
2680
2448
2452
0
0
0
0
0
0
0
0
0
0
0
0
0
0
0
0
0
0
0
0
0
0
0
0
1859
1855
2112
2260
2316
2352
2428
2500
2535
2500
2540
2551
2624
2631
2608
2628
2684
2732
2744
2708
2784
2748
2756
2851
2876
2760
2835
2791
2904
2852
2895
2911
2839
2932
2843
2859
2923
2896
2876
2907
2920
2908
2800
2903
2944
2943
2912
2923
2916
2908
2875
2932
2924
2935
2963
2935
2872
2975
2876
2876
2855
2724
2475
2476
0
0
0
0
0
0
0
0
0
0
0
0
0
0
0
0
0
0
0
0
0
0
0
0
1871
1871
2187
2303
2331
2432
2507
2484
2583
2524
2528
2595
2644
2632
2647
2632
2748
2735
2759
2723
2820
2743
2792
2843
2855
2780
2816
2808
2851
2864
2852
2915
2835
2944
2808
2911
2920
2852
2908
2920
2927
2892
2860
2847
2903
2988
2887
2923
2896
2920
2892
2887
2868
2948
2923
2904
2872
2940
2859
2887
2859
2680
2480
2484
0
0
0
0
0
0
0
0
0
0
0
0
0
0
0
0
0
0
0
0
0
0
0
0
1923
1920
2183
2376
2363
2468
2507
2544
2503
2591
2608
2624
2672
2636
2676
2700
2704
2783
2796
2724
2831
2816
2828
2864
2867
2771
2879
2871
2919
2931
2907
2956
2816
2975
2876
2920
2908
2891
2911
2892
2948
2928
2864
2899
2999
3012
2880
2943
2944
2911
2896
2959
2956
2975
2996
2932
2912
2984
2884
2935
2839
2755
2496
2500
0
0
0
0
0
0
0
0
0
0
0
0
0
0
0
0
0
0
0
0
0
0
0
0
1867
1863
2120
2315
2340
2431
2507
2523
2532
2551
2556
2632
2636
2660
2655
2664
2715
2743
2732
2732
2811
2767
2816
2891
2891
2744
2872
2844
2912
2820
2891
2899
2900
2936
2876
2843
2963
2919
2904
2975
2928
2959
2931
2891
2920
2916
2888
2928
2911
2939
2928
2888
2956
2980
2928
2915
2911
2896
2916
2891
2824
2719
2451
2455
0
0
0
0
0
0
0
0
0
0
0
0
0
0
0
0
0
0
0
0
0
0
0
0
1876
1872
2119
2344
2396
2416
2472
2508
2544
2596
2587
2528
2499
2591
2584
2635
2763
2644
2719
2788
2660
2776
2796
2759
2840
2804
2807
2847
2895
2875
2912
2892
2812
2924
2820
2887
2867
2876
2900
2892
2891
2900
2871
2843
2875
2876
2907
2924
2919
2936
2880
2939
2896
2888
2879
2915
2943
2900
2911
2855
2772
2656
2428
2432
0
0
0
0
0
0
0
0
0
0
0
0
0
0
0
0
0
0
0
0
0
0
0
0
1867
1864
2127
2359
2420
2479
2512
2523
2560
2628
2628
2635
2612
2671
2635
2724
2696
2671
2723
2800
2723
2804
2724
2832
2811
2816
2848
2863
2896
2840
2819
2915
2800
2956
2847
2907
2875
2852
2875
2900
2911
2843
2911
2855
2868
2836
2884
2951
2923
2931
2892
2932
2836
2928
2856
2892
2939
2856
2856
2831
2792
2607
2475
2479
0
0
0
0
0
0
0
0
0
0
0
0
0
0
0
0
0
0
0
0
0
0
0
0
1879
1876
2163
2356
2447
2443
2523
2508
2531
2623
2608
2620
2600
2655
2659
2720
2787
2704
2804
2795
2767
2851
2787
2843
2868
2852
2895
2855
2928
2892
2852
2940
2844
2955
2920
2931
2948
2883
2883
2972
2923
2927
2956
2867
2936
2872
2867
2972
2892
2944
2911
2948
2927
2939
2935
2919
2936
2904
2919
2871
2844
2640
2416
2420
0
0
0
0
0
0
0
0
0
0
0
0
0
0
0
0
0
0
0
0
0
0
0
0
1875
1871
2151
2344
2420
2476
2540
2487
2556
2552
2639
2643
2655
2648
2631
2695
2759
2704
2811
2804
2736
2863
2803
2811
2868
2848
2868
2875
2899
2892
2896
2908
2855
2923
2899
2940
2903
2904
2919
2908
2896
2911
2912
2888
2900
2871
2920
3003
2912
2915
2907
2940
2940
2900
2927
2840
2940
2887
2852
2847
2787
2651
2451
2452
0
0
0
0
0
0
0
0
0
0
0
0
0
0
0
0
0
0
0
0
0
0
0
0
1852
1848
2111
2300
2387
2451
2447
2507
2587
2556
2559
2600
2624
2700
2628
2659
2715
2708
2775
2707
2795
2792
2743
2795
2839
2856
2879
2823
2828
2939
2868
2903
2932
2939
3023
2843
2975
2895
2884
2927
2939
2988
2927
2883
2880
2880
2923
2992
2923
2911
2935
2848
2967
2828
2932
2856
2888
2903
2907
2832
2832
2655
2519
2519
0
0
0
0
0
0
0
0
0
0
0
0
0
0
0
0
0
0
0
0
0
0
0
0
1759
1752
2027
2175
2303
2348
2372
2399
2460
2419
2451
2480
2508
2603
2603
2584
2619
2555
2651
2595
2611
2671
2600
2664
2699
2715
2760
2719
2727
2788
2776
2811
2720
2791
2808
2707
2835
2792
2840
2819
2771
2816
2744
2780
2780
2759
2808
2847
2743
2824
2815
2716
2831
2727
2768
2800
2748
2756
2668
2699
2687
2556
2407
2408
0
0
0
0
0
0
0
0
0
0
0
0
0
0
0
0
0
0
0
0
0
0
0
0
1651
1643
1871
2060
2140
2204
2199
2219
2231
2335
2311
2340
2324
2432
2360
2440
2395
2460
2527
2392
2420
2496
2443
2496
2547
2555
2584
2591
2575
2600
2644
2635
2675
2679
2656
2512
2703
2612
2624
2635
2644
2644
2612
2564
2635
2559
2628
2639
2628
2580
2619
2587
2588
2551
2591
2548
2591
2644
2551
2464
2504
2387
2228
2228
0
0
0
0
0
0
0
0
0
0
0
0
0
0
0
0
0
0
0
0
0
0
0
0
1327
1315
1511
1696
1664
1795
1819
1832
1896
1908
1939
1987
1999
2028
2000
2016
1987
2024
2100
2055
2084
2140
2076
2116
2167
2204
2231
2212
2208
2216
2239
2296
2204
2216
2295
2155
2267
2183
2196
2288
2276
2268
2216
2216
2208
2179
2247
2291
2215
2208
2148
2167
2256
2127
2203
2144
2191
2188
2100
2132
2188
2036
1860
1859
0
0
0
0
0
0
0
0
0
0
0
0
0
0
0
0
0
0
0
0
0
0
0
0