P2
88 80
4095
911
915
859
800
783
783
899
1051
1255
1299
1268
996
948
931
920
1060
1139
1295
1455
1356
1231
1192
1123
1256
1332
1308
1435
1379
1284
1235
1308
1343
1404
1527
1532
1319
1252
1199
1175
1320
1419
1568
1688
1651
1552
1391
1316
1263
1316
1408
1563
1608
1723
1675
1540
1420
1335
1256
1255
1419
1472
1600
1516
1516
0
0
0
0
0
0
0
0
0
0
0
0
0
0
0
0
0
0
0
0
0
0
0
0
1251
1251
1204
1211
1088
1088
1140
1268
1459
1599
1527
1375
1232
1207
1172
1295
1419
1551
1767
1735
1639
1512
1404
1452
1588
1635
1755
1675
1628
1540
1571
1644
1720
1795
1776
1616
1499
1467
1416
1479
1651
1832
1912
1904
1827
1687
1519
1504
1539
1640
1767
1839
1840
1868
1755
1683
1568
1483
1480
1651
1735
1879
1856
1855
0
0
0
0
0
0
0
0
0
0
0
0
0
0
0
0
0
0
0
0
0
0
0
0
1227
1228
1295
1212
1096
1080
1131
1276
1496
1631
1647
1407
1219
1176
1144
1291
1419
1583
1820
1827
1655
1543
1387
1467
1472
1552
1736
1803
1675
1547
1576
1636
1671
1847
1823
1611
1491
1452
1363
1499
1600
1768
1987
2027
1928
1776
1511
1467
1467
1552
1711
1784
1864
1816
1728
1667
1556
1515
1492
1684
1732
1888
1924
1923
0
0
0
0
0
0
0
0
0
0
0
0
0
0
0
0
0
0
0
0
0
0
0
0
1215
1219
1436
1364
1223
1208
1208
1264
1503
1712
1719
1639
1432
1304
1292
1447
1543
1651
1919
1952
1792
1664
1535
1468
1548
1684
1940
1931
1871
1723
1588
1632
1711
1851
1888
1707
1632
1580
1491
1595
1663
1824
2020
2139
2067
1880
1635
1568
1579
1655
1736
1836
1936
1911
1807
1811
1759
1627
1675
1800
1860
1984
1907
1908
0
0
0
0
0
0
0
0
0
0
0
0
0
0
0
0
0
0
0
0
0
0
0
0
1172
1172
1400
1448
1272
1108
1196
1212
1476
1600
1732
1679
1451
1391
1263
1332
1519
1624
1879
1932
1847
1627
1460
1444
1432
1595
1763
1984
1852
1700
1499
1575
1599
1788
1771
1720
1695
1603
1539
1552
1695
1816
2028
2132
2119
1896
1715
1612
1675
1652
1735
1868
1972
1988
1971
1875
1748
1743
1751
1759
1812
1795
1868
1868
0
0
0
0
0
0
0
0
0
0
0
0
0
0
0
0
0
0
0
0
0
0
0
0
1191
1191
1431
1452
1244
1115
1123
1152
1383
1508
1643
1683
1548
1483
1319
1272
1391
1551
1703
1883
1772
1636
1444
1368
1335
1507
1739
1952
1880
1664
1479
1519
1528
1659
1795
1692
1715
1595
1523
1499
1604
1735
1984
2143
2119
1960
1731
1620
1619
1615
1708
1932
2127
2139
2063
1967
1832
1687
1695
1636
1620
1708
1728
1728
0
0
0
0
0
0
0
0
0
0
0
0
0
0
0
0
0
0
0
0
0
0
0
0
1088
1088
1400
1399
1248
1131
1063
1191
1288
1488
1711
1703
1624
1559
1316
1267
1379
1495
1715
1840
1856
1668
1472
1383
1415
1511
1676
1896
1855
1747
1603
1531
1403
1676
1807
1811
1839
1628
1580
1536
1631
1720
1924
2164
2192
2056
1884
1736
1636
1659
1719
1955
2175
2244
2211
2048
1916
1724
1667
1592
1604
1600
1676
1676
0
0
0
0
0
0
0
0
0
0
0
0
0
0
0
0
0
0
0
0
0
0
0
0
1047
1047
1259
1416
1275
1164
1180
1208
1327
1436
1716
1764
1676
1612
1383
1327
1280
1448
1644
1804
1860
1816
1607
1484
1431
1520
1688
1943
1908
1824
1623
1631
1500
1692
1851
1928
1928
1704
1567
1563
1600
1700
1927
2155
2267
2080
1920
1744
1644
1676
1699
1911
2207
2251
2308
2143
1988
1748
1683
1620
1584
1592
1604
1604
0
0
0
0
0
0
0
0
0
0
0
0
0
0
0
0
0
0
0
0
0
0
0
0
932
932
1147
1332
1267
1176
1043
1112
1163
1355
1608
1719
1723
1563
1316
1243
1283
1308
1523
1716
1855
1831
1655
1495
1371
1452
1731
1768
1876
1760
1615
1536
1443
1528
1696
1828
1831
1644
1492
1500
1404
1576
1807
1980
2172
2087
1932
1748
1512
1555
1515
1791
2031
2208
2232
2112
1991
1704
1528
1536
1436
1528
1524
1524
0
0
0
0
0
0
0
0
0
0
0
0
0
0
0
0
0
0
0
0
0
0
0
0
879
879
1139
1300
1247
1211
1060
1132
1219
1339
1560
1739
1707
1628
1387
1311
1256
1264
1471
1580
1863
1908
1760
1559
1516
1432
1643
1716
1776
1723
1679
1483
1387
1484
1627
1671
1791
1667
1524
1460
1439
1515
1716
1940
2143
2044
1895
1739
1508
1531
1443
1663
1992
2136
2244
2108
2024
1780
1528
1484
1467
1436
1528
1527
0
0
0
0
0
0
0
0
0
0
0
0
0
0
0
0
0
0
0
0
0
0
0
0
887
884
1080
1303
1292
1219
1083
1091
1147
1259
1487
1716
1743
1659
1391
1340
1259
1292
1439
1583
1832
1928
1828
1740
1543
1463
1612
1679
1675
1692
1608
1560
1407
1404
1535
1667
1795
1744
1624
1507
1435
1480
1735
1860
2107
2068
1896
1720
1567
1559
1455
1600
1927
2131
2256
2220
2108
1900
1655
1571
1444
1468
1543
1544
0
0
0
0
0
0
0
0
0
0
0
0
0
0
0
0
0
0
0
0
0
0
0
0
887
887
1139
1284
1307
1195
1119
1063
1143
1227
1395
1596
1691
1743
1515
1367
1344
1320
1384
1628
1783
1963
1927
1780
1596
1472
1580
1532
1515
1575
1588
1532
1452
1447
1532
1560
1776
1792
1652
1588
1435
1503
1599
1835
2040
2031
1935
1764
1528
1520
1487
1647
1855
2120
2260
2231
2228
2000
1683
1627
1500
1488
1476
1476
0
0
0
0
0
0
0
0
0
0
0
0
0
0
0
0
0
0
0
0
0
0
0
0
823
820
1067
1228
1235
1219
1171
1048
1060
1092
1280
1496
1599
1743
1636
1403
1308
1347
1404
1468
1724
1847
1883
1792
1587
1432
1416
1420
1408
1508
1476
1556
1499
1456
1455
1595
1660
1731
1712
1591
1524
1551
1632
1800
1988
1999
2016
1808
1547
1504
1532
1668
1820
2008
2175
2359
2351
2192
1912
1648
1480
1380
1359
1359
0
0
0
0
0
0
0
0
0
0
0
0
0
0
0
0
0
0
0
0
0
0
0
0
875
876
1027
1195
1299
1260
1152
1051
1107
1071
1195
1467
1587
1744
1672
1503
1312
1323
1276
1312
1612
1748
1883
1780
1595
1395
1319
1256
1352
1455
1539
1579
1411
1411
1456
1575
1667
1775
1711
1551
1479
1452
1524
1640
1936
1984
1995
1812
1511
1480
1500
1591
1696
1952
2108
2264
2224
2188
1876
1623
1451
1343
1291
1291
0
0
0
0
0
0
0
0
0
0
0
0
0
0
0
0
0
0
0
0
0
0
0
0
808
808
987
1220
1259
1331
1239
1075
1104
1144
1252
1399
1579
1771
1715
1540
1380
1264
1299
1296
1528
1699
1851
1779
1632
1475
1368
1339
1340
1459
1532
1635
1512
1496
1547
1564
1683
1792
1791
1655
1523
1471
1552
1672
1944
2048
2116
1915
1691
1599
1563
1592
1680
1879
2000
2231
2244
2203
1927
1692
1487
1343
1300
1300
0
0
0
0
0
0
0
0
0
0
0
0
0
0
0
0
0
0
0
0
0
0
0
0
816
811
979
1219
1291
1343
1248
1107
1063
1112
1195
1400
1555
1784
1676
1568
1364
1275
1268
1268
1419
1591
1808
1791
1679
1519
1392
1295
1404
1447
1496
1675
1584
1607
1660
1675
1763
1832
1831
1652
1500
1492
1531
1651
1896
2099
2140
2079
1815
1640
1520
1531
1599
1756
1923
2188
2267
2224
1996
1704
1491
1388
1267
1267
0
0
0
0
0
0
0
0
0
0
0
0
0
0
0
0
0
0
0
0
0
0
0
0
716
719
955
1175
1248
1407
1279
1115
1071
1159
1147
1307
1531
1684
1643
1539
1335
1228
1195
1192
1283
1499
1703
1791
1764
1528
1463
1252
1307
1351
1428
1595
1615
1703
1664
1895
1940
1939
1807
1696
1508
1428
1447
1647
1903
2071
2176
2055
1904
1648
1479
1447
1455
1591
1880
2032
2139
2139
1904
1719
1528
1459
1251
1251
0
0
0
0
0
0
0
0
0
0
0
0
0
0
0
0
0
0
0
0
0
0
0
0
672
672
948
1119
1268
1487
1280
1096
1003
1035
1120
1231
1475
1668
1632
1568
1380
1247
1179
1192
1324
1499
1712
1775
1736
1579
1444
1243
1272
1260
1311
1491
1615
1792
1856
2071
2027
2004
1827
1628
1439
1380
1479
1523
1803
2040
2151
2079
1916
1672
1419
1363
1347
1499
1752
1960
2136
2208
1976
1811
1515
1420
1316
1315
0
0
0
0
0
0
0
0
0
0
0
0
0
0
0
0
0
0
0
0
0
0
0
0
715
716
955
1112
1263
1507
1395
1144
1055
1072
1143
1195
1395
1683
1751
1663
1531
1296
1264
1199
1276
1448
1587
1820
1836
1700
1504
1339
1339
1335
1355
1479
1596
1807
1964
2195
2207
2128
1943
1719
1456
1364
1491
1567
1848
2032
2236
2220
2048
1800
1572
1519
1460
1528
1808
1952
2147
2236
2111
1979
1704
1451
1352
1352
0
0
0
0
0
0
0
0
0
0
0
0
0
0
0
0
0
0
0
0
0
0
0
0
640
639
967
1092
1300
1496
1420
1219
1083
1087
1155
1199
1316
1552
1700
1707
1607
1364
1287
1156
1211
1388
1608
1772
1839
1788
1651
1431
1324
1312
1312
1416
1532
1764
1911
2168
2215
2123
1963
1779
1479
1423
1455
1559
1779
2003
2219
2151
2095
1899
1532
1555
1587
1559
1800
1879
2139
2235
2188
2043
1756
1552
1307
1307
0
0
0
0
0
0
0
0
0
0
0
0
0
0
0
0
0
0
0
0
0
0
0
0
715
711
883
1068
1164
1395
1512
1359
1196
1064
1051
1175
1271
1448
1652
1808
1587
1424
1335
1199
1300
1352
1443
1700
1879
1868
1807
1515
1383
1379
1363
1311
1400
1588
1851
2064
2227
2279
2108
1840
1563
1584
1447
1595
1751
1951
2172
2244
2076
2055
1747
1587
1592
1596
1684
1892
2007
2188
2263
2116
1931
1692
1451
1451
0
0
0
0
0
0
0
0
0
0
0
0
0
0
0
0
0
0
0
0
0
0
0
0
711
708
896
1039
1167
1339
1547
1435
1275
1132
1051
1055
1171
1323
1544
1711
1675
1483
1376
1203
1211
1259
1372
1580
1864
1896
1824
1699
1508
1344
1288
1311
1260
1440
1652
1944
2028
2207
2135
1872
1596
1532
1355
1576
1543
1795
2012
2179
2091
2075
1767
1568
1555
1503
1555
1668
1864
2159
2235
2155
2000
1791
1539
1539
0
0
0
0
0
0
0
0
0
0
0
0
0
0
0
0
0
0
0
0
0
0
0
0
771
768
883
1080
1083
1355
1584
1503
1415
1183
1064
1048
1139
1307
1479
1684
1784
1587
1455
1291
1255
1260
1307
1516
1776
1915
2008
1776
1516
1403
1364
1356
1311
1359
1563
1788
2000
2208
2111
1988
1740
1564
1475
1496
1516
1676
1943
2132
2152
2132
1844
1639
1599
1475
1503
1603
1771
2008
2243
2184
2183
1895
1639
1636
0
0
0
0
0
0
0
0
0
0
0
0
0
0
0
0
0
0
0
0
0
0
0
0
779
779
900
996
1120
1259
1548
1543
1452
1256
1124
1076
1128
1235
1387
1588
1800
1656
1548
1336
1323
1236
1292
1455
1647
1812
1996
1912
1743
1527
1392
1348
1296
1331
1472
1675
1939
2104
2132
2087
1860
1672
1460
1423
1431
1544
1803
2040
2135
2151
1983
1724
1587
1423
1467
1611
1684
1971
2132
2248
2184
1967
1643
1643
0
0
0
0
0
0
0
0
0
0
0
0
0
0
0
0
0
0
0
0
0
0
0
0
756
756
831
907
952
1192
1275
1511
1436
1275
1179
1080
1020
1127
1224
1467
1760
1679
1539
1327
1227
1207
1167
1364
1516
1708
1871
1907
1755
1583
1480
1372
1347
1360
1372
1472
1771
1996
2132
2024
1903
1623
1440
1300
1328
1459
1667
1836
2072
2147
2008
1791
1592
1452
1324
1443
1563
1788
1952
2143
2127
1979
1603
1604
0
0
0
0
0
0
0
0
0
0
0
0
0
0
0
0
0
0
0
0
0
0
0
0
711
707
799
892
907
1100
1240
1471
1499
1356
1195
1076
975
1100
1187
1423
1655
1711
1595
1460
1216
1180
1156
1259
1367
1579
1836
1864
1827
1688
1539
1384
1279
1323
1316
1444
1683
1888
2103
2023
1927
1664
1444
1263
1312
1319
1563
1787
1984
2115
2040
1851
1628
1455
1336
1347
1456
1611
1731
2000
2120
1996
1715
1719
0
0
0
0
0
0
0
0
0
0
0
0
0
0
0
0
0
0
0
0
0
0
0
0
799
796
887
900
884
1059
1168
1388
1531
1436
1295
1180
1027
1095
1164
1371
1587
1743
1731
1584
1348
1332
1124
1227
1376
1571
1788
1924
1947
1872
1703
1491
1315
1344
1336
1455
1587
1803
2024
2027
2019
1779
1543
1427
1347
1327
1564
1679
1979
2147
2127
2003
1827
1564
1400
1348
1507
1563
1643
1944
2052
2016
1859
1860
0
0
0
0
0
0
0
0
0
0
0
0
0
0
0
0
0
0
0
0
0
0
0
0
724
719
851
904
835
951
1112
1379
1516
1523
1400
1239
1028
1100
1147
1239
1548
1663
1780
1636
1476
1335
1192
1272
1284
1476
1700
1883
1920
1975
1820
1671
1443
1371
1335
1359
1471
1635
1844
2003
2004
1808
1579
1403
1343
1331
1552
1620
1799
2044
2091
2032
1904
1627
1420
1352
1392
1504
1540
1824
1972
2079
1888
1891
0
0
0
0
0
0
0
0
0
0
0
0
0
0
0
0
0
0
0
0
0
0
0
0
743
736
804
808
835
944
1087
1312
1560
1576
1495
1280
1079
1116
1100
1211
1427
1644
1780
1776
1651
1459
1251
1227
1260
1363
1491
1704
1896
1968
1968
1767
1520
1360
1339
1276
1424
1487
1688
1940
1967
1884
1691
1428
1319
1343
1439
1611
1748
1919
2179
2100
2023
1787
1624
1483
1451
1495
1400
1724
1923
2007
1956
1960
0
0
0
0
0
0
0
0
0
0
0
0
0
0
0
0
0
0
0
0
0
0
0
0
791
787
908
907
867
968
1091
1379
1600
1631
1668
1340
1136
1124
1116
1163
1348
1531
1767
1799
1723
1523
1275
1244
1283
1272
1356
1519
1704
1864
1924
1827
1659
1391
1351
1272
1359
1411
1563
1839
2004
1896
1775
1443
1304
1387
1363
1476
1559
1867
2035
2135
2068
1891
1644
1419
1428
1427
1372
1559
1843
1960
1924
1924
0
0
0
0
0
0
0
0
0
0
0
0
0
0
0
0
0
0
0
0
0
0
0
0
916
912
963
875
867
1003
1135
1331
1584
1696
1687
1483
1284
1251
1112
1164
1320
1463
1676
1824
1839
1600
1311
1224
1215
1235
1315
1395
1579
1740
1920
1867
1708
1576
1432
1276
1379
1380
1559
1871
1928
2003
1911
1636
1479
1395
1376
1444
1551
1751
1947
2151
2196
1999
1732
1575
1491
1548
1407
1611
1827
1932
1916
1916
0
0
0
0
0
0
0
0
0
0
0
0
0
0
0
0
0
0
0
0
0
0
0
0
932
928
967
831
907
975
1075
1296
1563
1672
1712
1564
1364
1323
1156
1139
1264
1343
1643
1815
1824
1719
1455
1360
1199
1235
1288
1255
1460
1667
1876
1944
1828
1631
1487
1412
1379
1408
1564
1780
1947
2023
1967
1796
1659
1547
1412
1423
1519
1687
1875
2100
2143
2095
1868
1615
1524
1540
1380
1512
1732
1876
1827
1827
0
0
0
0
0
0
0
0
0
0
0
0
0
0
0
0
0
0
0
0
0
0
0
0
1004
1000
1000
936
847
864
987
1111
1336
1560
1668
1575
1516
1344
1139
1035
1139
1243
1515
1692
1731
1728
1468
1311
1295
1195
1219
1216
1327
1467
1667
1863
1871
1848
1604
1324
1387
1331
1419
1535
1775
1947
1995
1848
1771
1455
1363
1419
1400
1488
1631
1931
2163
2068
1992
1707
1503
1463
1412
1404
1632
1703
1760
1763
0
0
0
0
0
0
0
0
0
0
0
0
0
0
0
0
0
0
0
0
0
0
0
0
1135
1135
1079
1047
904
936
971
1020
1212
1491
1663
1715
1620
1416
1175
1071
1100
1171
1424
1627
1687
1787
1591
1396
1296
1203
1228
1196
1255
1384
1516
1763
1863
1892
1691
1380
1352
1276
1367
1455
1595
1839
1964
1959
1792
1520
1372
1283
1368
1412
1540
1836
2080
2051
2060
1760
1535
1500
1323
1344
1452
1556
1595
1595
0
0
0
0
0
0
0
0
0
0
0
0
0
0
0
0
0
0
0
0
0
0
0
0
1211
1211
1307
1195
967
927
992
1063
1132
1407
1607
1748
1687
1531
1271
1136
1127
1139
1355
1492
1732
1855
1739
1535
1427
1255
1243
1199
1264
1364
1472
1700
1871
1944
1875
1559
1472
1307
1332
1383
1492
1727
1928
1947
1899
1564
1523
1435
1419
1464
1587
1772
2040
2084
2199
1915
1712
1527
1412
1375
1455
1520
1560
1560
0
0
0
0
0
0
0
0
0
0
0
0
0
0
0
0
0
0
0
0
0
0
0
0
1212
1211
1303
1323
1099
996
999
935
1135
1399
1648
1787
1755
1551
1287
1144
1076
1160
1255
1471
1567
1804
1795
1659
1536
1335
1344
1224
1292
1287
1432
1639
1847
1955
1887
1667
1527
1339
1371
1327
1448
1592
1820
1924
2047
1752
1620
1479
1376
1423
1507
1723
1996
2120
2212
2011
1820
1624
1448
1367
1443
1504
1524
1524
0
0
0
0
0
0
0
0
0
0
0
0
0
0
0
0
0
0
0
0
0
0
0
0
1244
1240
1372
1339
1143
1080
903
943
1056
1268
1520
1700
1732
1620
1351
1196
1032
1036
1132
1308
1496
1644
1771
1819
1644
1436
1340
1232
1315
1268
1236
1487
1691
1795
1936
1839
1675
1407
1351
1315
1348
1523
1744
1931
2052
1928
1747
1591
1415
1463
1432
1648
1883
2020
2263
2119
1892
1739
1464
1343
1360
1416
1376
1379
0
0
0
0
0
0
0
0
0
0
0
0
0
0
0
0
0
0
0
0
0
0
0
0
1175
1172
1455
1516
1288
1160
972
984
1103
1236
1423
1664
1739
1631
1375
1240
1140
1011
1111
1243
1299
1540
1688
1816
1675
1560
1395
1264
1291
1195
1244
1384
1563
1731
1908
1936
1779
1515
1388
1332
1319
1443
1604
1864
1952
1935
1900
1748
1428
1444
1367
1508
1735
1931
2160
2107
1988
1780
1571
1363
1360
1315
1247
1248
0
0
0
0
0
0
0
0
0
0
0
0
0
0
0
0
0
0
0
0
0
0
0
0
1156
1155
1415
1572
1419
1223
987
943
1031
1127
1424
1648
1723
1720
1527
1395
1188
1056
1172
1184
1287
1387
1619
1892
1783
1691
1463
1315
1239
1231
1259
1351
1476
1611
1860
1992
1920
1715
1523
1443
1327
1432
1536
1739
1939
2044
1980
1855
1588
1556
1464
1484
1640
1760
2111
2107
2011
1936
1683
1452
1416
1292
1195
1195
0
0
0
0
0
0
0
0
0
0
0
0
0
0
0
0
0
0
0
0
0
0
0
0
1000
1000
1420
1560
1495
1316
1091
1040
1056
1011
1296
1531
1639
1763
1640
1471
1252
1128
1132
1140
1227
1364
1516
1767
1839
1840
1604
1399
1292
1283
1231
1336
1416
1511
1808
1883
2035
1808
1671
1555
1395
1380
1483
1628
1828
1968
2012
1935
1716
1620
1508
1423
1575
1639
1932
2012
2035
2003
1739
1471
1363
1299
1251
1252
0
0
0
0
0
0
0
0
0
0
0
0
0
0
0
0
0
0
0
0
0
0
0
0
963
960
1255
1519
1467
1355
1196
987
968
963
1080
1259
1511
1640
1699
1604
1339
1299
1120
1079
1171
1215
1392
1688
1727
1780
1671
1504
1335
1212
1223
1331
1316
1496
1563
1827
1999
1996
1803
1696
1459
1332
1339
1468
1671
1795
1887
1975
1791
1712
1432
1356
1376
1464
1671
1835
1903
1907
1707
1652
1387
1280
1236
1232
0
0
0
0
0
0
0
0
0
0
0
0
0
0
0
0
0
0
0
0
0
0
0
0
904
903
1243
1483
1512
1491
1356
1080
1012
995
1080
1139
1435
1580
1660
1687
1403
1332
1091
1099
1140
1152
1300
1563
1735
1824
1751
1647
1427
1279
1200
1300
1287
1404
1544
1723
1976
2020
1943
1779
1595
1391
1271
1391
1460
1592
1776
1943
1823
1812
1451
1283
1339
1363
1431
1587
1863
1848
1740
1720
1491
1316
1287
1287
0
0
0
0
0
0
0
0
0
0
0
0
0
0
0
0
0
0
0
0
0
0
0
0
875
872
1152
1467
1563
1591
1475
1215
1075
924
1003
1099
1227
1552
1691
1699
1540
1435
1171
1080
1123
1123
1276
1460
1627
1804
1895
1820
1643
1455
1328
1299
1296
1383
1484
1760
1916
2115
2124
1931
1672
1468
1356
1383
1412
1487
1652
1876
1876
1823
1544
1424
1372
1372
1363
1507
1723
1803
1836
1867
1735
1487
1328
1327
0
0
0
0
0
0
0
0
0
0
0
0
0
0
0
0
0
0
0
0
0
0
0
0
816
812
1028
1367
1588
1659
1548
1332
1168
1039
1051
1083
1216
1444
1639
1760
1696
1559
1308
1211
1204
1231
1283
1399
1631
1848
1972
1988
1796
1599
1379
1451
1371
1447
1499
1699
1932
2147
2139
2104
1831
1635
1415
1423
1459
1459
1619
1843
1912
1968
1740
1548
1472
1411
1404
1475
1703
1863
1940
2056
1887
1720
1439
1435
0
0
0
0
0
0
0
0
0
0
0
0
0
0
0
0
0
0
0
0
0
0
0
0
575
568
791
1143
1196
1391
1375
1211
1040
828
879
899
920
1103
1328
1480
1572
1451
1296
1140
1091
1088
1040
1143
1307
1524
1795
1848
1788
1532
1280
1223
1092
1144
1252
1431
1628
1883
2056
1936
1795
1536
1339
1284
1199
1192
1384
1547
1644
1748
1716
1664
1391
1320
1272
1236
1387
1579
1700
1871
1760
1660
1444
1443
0
0
0
0
0
0
0
0
0
0
0
0
0
0
0
0
0
0
0
0
0
0
0
0
603
596
811
1052
1200
1339
1411
1300
1160
988
979
971
887
1067
1336
1496
1679
1679
1540
1284
1215
1184
1087
1227
1295
1527
1787
1915
1880
1696
1408
1308
1167
1227
1331
1428
1576
1855
2067
2060
1908
1695
1512
1344
1247
1296
1380
1472
1564
1864
1876
1867
1592
1459
1348
1364
1351
1515
1651
1756
1855
1768
1692
1695
0
0
0
0
0
0
0
0
0
0
0
0
0
0
0
0
0
0
0
0
0
0
0
0
623
619
775
955
1068
1307
1428
1280
1307
1007
1020
995
947
1003
1236
1384
1595
1700
1731
1384
1280
1203
1104
1188
1315
1399
1755
1908
1999
1787
1556
1408
1239
1208
1324
1356
1588
1811
2008
2112
2056
1928
1668
1511
1320
1339
1363
1415
1556
1804
1907
2071
1787
1687
1555
1359
1364
1419
1471
1643
1736
1860
1760
1763
0
0
0
0
0
0
0
0
0
0
0
0
0
0
0
0
0
0
0
0
0
0
0
0
627
623
772
947
939
1184
1319
1359
1364
1123
1115
1036
939
1051
1115
1291
1539
1671
1743
1563
1387
1320
1204
1207
1268
1363
1684
1943
1963
1880
1627
1464
1263
1207
1311
1332
1468
1707
1964
2063
2116
2044
1851
1643
1444
1367
1347
1467
1519
1751
1883
2051
1955
1844
1732
1507
1335
1347
1404
1516
1627
1747
1664
1664
0
0
0
0
0
0
0
0
0
0
0
0
0
0
0
0
0
0
0
0
0
0
0
0
628
623
723
808
899
1060
1259
1415
1447
1332
1088
1028
1031
991
959
1220
1416
1608
1727
1619
1399
1283
1171
1171
1184
1335
1540
1895
1960
1915
1843
1664
1388
1260
1243
1247
1411
1579
1796
1987
2095
2119
2031
1828
1612
1411
1380
1424
1431
1532
1748
1920
2048
1988
1804
1648
1412
1403
1236
1311
1504
1572
1539
1543
0
0
0
0
0
0
0
0
0
0
0
0
0
0
0
0
0
0
0
0
0
0
0
0
599
587
727
804
891
1048
1259
1464
1491
1440
1235
1140
1067
991
1024
1115
1283
1555
1675
1699
1535
1395
1192
1192
1196
1283
1423
1739
1875
1908
1891
1776
1435
1304
1188
1184
1328
1423
1635
1808
1999
2164
1992
1932
1740
1471
1347
1400
1411
1403
1527
1763
1932
1976
1915
1735
1492
1340
1232
1224
1404
1419
1460
1460
0
0
0
0
0
0
0
0
0
0
0
0
0
0
0
0
0
0
0
0
0
0
0
0
667
659
716
803
827
1020
1195
1323
1551
1572
1303
1227
1056
1007
959
1139
1164
1475
1640
1752
1615
1507
1323
1252
1224
1199
1335
1644
1823
1960
2008
1863
1596
1396
1300
1283
1352
1359
1511
1704
1952
2179
2148
2096
1899
1615
1460
1440
1315
1343
1416
1695
1891
2067
1928
1859
1640
1491
1307
1268
1352
1359
1380
1379
0
0
0
0
0
0
0
0
0
0
0
0
0
0
0
0
0
0
0
0
0
0
0
0
691
683
763
832
884
923
1071
1187
1416
1531
1447
1272
1115
1032
959
1083
1155
1287
1515
1624
1696
1531
1331
1291
1196
1252
1275
1519
1676
1912
1975
1955
1691
1471
1352
1291
1288
1263
1384
1600
1799
2059
2171
2132
1935
1723
1496
1395
1343
1315
1403
1524
1731
1860
1928
1944
1724
1655
1363
1352
1368
1331
1363
1363
0
0
0
0
0
0
0
0
0
0
0
0
0
0
0
0
0
0
0
0
0
0
0
0
771
764
880
895
816
923
995
1139
1332
1560
1567
1439
1191
1140
1027
1048
1163
1256
1412
1636
1720
1708
1468
1400
1276
1295
1275
1324
1551
1891
1932
2000
1879
1703
1468
1240
1371
1412
1347
1503
1792
2028
2168
2276
2160
1904
1708
1508
1368
1467
1336
1607
1616
1680
1924
2016
1923
1879
1667
1583
1475
1404
1404
1403
0
0
0
0
0
0
0
0
0
0
0
0
0
0
0
0
0
0
0
0
0
0
0
0
827
823
791
875
791
811
880
1015
1211
1487
1544
1504
1324
1171
1000
1039
1100
1180
1279
1488
1688
1687
1572
1439
1288
1200
1140
1232
1352
1627
1812
1923
1808
1692
1496
1216
1283
1307
1295
1451
1647
1948
2083
2228
2168
1960
1771
1559
1356
1376
1284
1451
1472
1452
1804
1947
1915
1920
1800
1656
1559
1451
1311
1308
0
0
0
0
0
0
0
0
0
0
0
0
0
0
0
0
0
0
0
0
0
0
0
0
860
856
952
927
827
875
884
952
1176
1495
1587
1644
1396
1348
1024
1091
1084
1084
1179
1387
1620
1828
1715
1620
1459
1255
1260
1211
1255
1540
1716
1939
1924
1872
1676
1368
1364
1372
1351
1408
1580
1799
1947
2171
2196
2079
1972
1796
1555
1416
1340
1451
1391
1423
1608
1835
1943
2084
1972
1891
1720
1544
1327
1323
0
0
0
0
0
0
0
0
0
0
0
0
0
0
0
0
0
0
0
0
0
0
0
0
824
820
1072
995
872
796
883
967
1063
1296
1516
1663
1487
1404
1179
1071
1060
1051
1199
1300
1584
1808
1803
1771
1583
1395
1280
1228
1284
1347
1543
1787
1944
1955
1871
1572
1487
1359
1316
1352
1435
1587
1755
2012
2115
2119
2048
1915
1623
1551
1364
1383
1368
1400
1543
1623
1804
2004
2004
1979
1948
1691
1419
1415
0
0
0
0
0
0
0
0
0
0
0
0
0
0
0
0
0
0
0
0
0
0
0
0
928
923
1087
1035
919
911
803
896
1044
1164
1400
1664
1592
1504
1176
1100
1060
1035
1156
1311
1475
1663
1895
1871
1671
1595
1392
1240
1287
1268
1499
1715
1875
1983
1964
1791
1640
1391
1316
1316
1392
1427
1596
1771
2051
2144
2212
2068
1923
1783
1548
1448
1404
1375
1447
1508
1667
1868
1968
2032
2003
1823
1647
1647
0
0
0
0
0
0
0
0
0
0
0
0
0
0
0
0
0
0
0
0
0
0
0
0
864
856
1075
1060
1015
956
884
955
980
1036
1335
1508
1619
1576
1260
1199
1128
1076
1124
1203
1395
1635
1848
1907
1788
1655
1476
1256
1283
1272
1356
1591
1752
1996
1940
1876
1700
1415
1299
1300
1287
1275
1467
1628
1892
2067
2171
2123
2076
1819
1656
1468
1367
1303
1380
1372
1508
1632
1740
1915
1995
1940
1679
1675
0
0
0
0
0
0
0
0
0
0
0
0
0
0
0
0
0
0
0
0
0
0
0
0
808
800
1051
1128
1103
1100
896
956
1035
1048
1280
1499
1616
1648
1380
1315
1172
1175
1179
1239
1323
1596
1795
1968
1892
1836
1732
1468
1300
1223
1335
1539
1724
1979
2039
2040
1939
1624
1376
1383
1296
1371
1396
1523
1760
1935
2060
2143
2115
2000
1824
1599
1504
1443
1387
1355
1447
1523
1563
1795
1988
1964
1856
1856
0
0
0
0
0
0
0
0
0
0
0
0
0
0
0
0
0
0
0
0
0
0
0
0
652
643
947
1099
1168
1063
823
880
964
931
1139
1380
1516
1651
1459
1211
1140
1064
1163
1115
1131
1380
1583
1831
1919
1911
1804
1563
1380
1228
1276
1391
1576
1840
2000
2043
1936
1736
1532
1364
1295
1256
1304
1388
1532
1660
1872
1976
2136
2104
1932
1791
1583
1503
1419
1355
1315
1331
1339
1607
1772
1848
1756
1759
0
0
0
0
0
0
0
0
0
0
0
0
0
0
0
0
0
0
0
0
0
0
0
0
612
600
859
1075
1131
1140
987
911
896
960
1096
1324
1487
1687
1584
1387
1224
1167
1127
1112
1171
1239
1467
1804
2016
2016
1988
1712
1496
1307
1348
1527
1579
1808
1956
2071
2028
1964
1747
1523
1335
1351
1291
1295
1399
1500
1700
1935
2151
2192
2208
2067
1976
1752
1660
1428
1348
1339
1371
1511
1644
1660
1679
1679
0
0
0
0
0
0
0
0
0
0
0
0
0
0
0
0
0
0
0
0
0
0
0
0
648
639
875
1079
1123
1236
1083
1000
924
951
1048
1272
1440
1640
1644
1476
1340
1175
1120
1163
1159
1212
1355
1688
1928
2047
2088
1895
1696
1519
1452
1416
1387
1652
1872
2031
2120
2040
1875
1600
1383
1348
1299
1280
1319
1412
1523
1819
1992
2196
2231
2236
2112
1951
1776
1559
1408
1336
1327
1432
1423
1495
1540
1540
0
0
0
0
0
0
0
0
0
0
0
0
0
0
0
0
0
0
0
0
0
0
0
0
703
691
843
1080
1188
1236
1179
1032
999
1000
1016
1187
1411
1668
1695
1612
1484
1256
1155
1155
1139
1171
1348
1651
1899
2047
2131
2115
1919
1775
1523
1520
1435
1552
1800
2039
2188
2092
2047
1791
1488
1360
1227
1256
1292
1364
1523
1756
1939
2191
2252
2307
2164
2132
1916
1660
1528
1363
1372
1379
1367
1344
1419
1419
0
0
0
0
0
0
0
0
0
0
0
0
0
0
0
0
0
0
0
0
0
0
0
0
719
708
900
1071
1163
1320
1299
1075
1020
984
995
1148
1320
1588
1668
1735
1588
1384
1235
1212
1164
1191
1339
1592
1851
2019
2167
2152
2035
1899
1663
1600
1444
1475
1655
1896
2048
2144
2056
1928
1636
1471
1276
1256
1355
1404
1512
1744
1939
2123
2196
2200
2100
2044
2007
1868
1680
1507
1416
1359
1371
1303
1344
1344
0
0
0
0
0
0
0
0
0
0
0
0
0
0
0
0
0
0
0
0
0
0
0
0
783
776
884
1176
1272
1431
1348
1164
1087
959
1080
1060
1224
1420
1631
1716
1748
1543
1443
1259
1220
1256
1244
1471
1643
1876
2087
2143
2192
2076
1819
1619
1332
1420
1432
1643
1828
1971
2023
2011
1739
1463
1323
1283
1404
1448
1516
1512
1715
2052
1956
1995
1855
1852
1939
1828
1812
1763
1591
1475
1420
1356
1276
1275
0
0
0
0
0
0
0
0
0
0
0
0
0
0
0
0
0
0
0
0
0
0
0
0
884
879
1095
1272
1396
1520
1472
1240
1120
1043
1063
1091
1131
1360
1567
1743
1804
1668
1523
1356
1260
1263
1255
1308
1555
1692
2019
2059
2171
2108
1959
1699
1480
1372
1387
1496
1647
1811
1931
1991
1755
1560
1300
1363
1427
1432
1448
1451
1655
1928
1823
1772
1639
1652
1763
1772
1820
1851
1747
1583
1496
1376
1239
1235
0
0
0
0
0
0
0
0
0
0
0
0
0
0
0
0
0
0
0
0
0
0
0
0
864
859
1143
1455
1471
1615
1555
1376
1227
1099
1151
1076
1092
1259
1455
1675
1843
1751
1675
1496
1403
1307
1251
1308
1383
1551
1868
1967
2188
2159
2052
1847
1551
1404
1368
1459
1519
1659
1915
1984
1860
1683
1496
1396
1423
1447
1499
1483
1560
1935
1800
1719
1568
1484
1631
1720
1903
1976
1960
1799
1708
1483
1331
1328
0
0
0
0
0
0
0
0
0
0
0
0
0
0
0
0
0
0
0
0
0
0
0
0
828
820
1163
1432
1515
1676
1695
1492
1327
1188
1060
1068
1071
1144
1299
1531
1780
1759
1740
1540
1339
1271
1211
1276
1347
1416
1704
1895
2076
2071
2055
1927
1656
1495
1400
1423
1459
1572
1836
1932
1924
1771
1507
1419
1376
1383
1431
1411
1615
1852
1807
1675
1499
1443
1531
1567
1759
1916
1972
1960
1892
1664
1388
1384
0
0
0
0
0
0
0
0
0
0
0
0
0
0
0
0
0
0
0
0
0
0
0
0
740
731
1015
1284
1484
1615
1696
1651
1464
1199
1079
1024
1067
1116
1207
1415
1691
1844
1823
1627
1476
1295
1211
1288
1344
1291
1503
1632
1920
2000
2123
2052
1823
1704
1456
1376
1443
1508
1684
1915
1991
1888
1592
1504
1424
1367
1356
1476
1648
1812
1843
1760
1580
1487
1483
1508
1563
1839
1908
2040
2051
1867
1551
1544
0
0
0
0
0
0
0
0
0
0
0
0
0
0
0
0
0
0
0
0
0
0
0
0
692
683
995
1212
1420
1663
1788
1707
1616
1304
1084
1044
1071
1060
1160
1324
1651
1811
1895
1719
1619
1367
1283
1288
1291
1252
1355
1444
1616
1836
1975
2063
1908
1824
1484
1415
1379
1364
1588
1803
1956
1924
1744
1543
1431
1435
1332
1447
1599
1831
1892
1808
1619
1544
1419
1395
1427
1627
1760
1979
2079
1924
1691
1688
0
0
0
0
0
0
0
0
0
0
0
0
0
0
0
0
0
0
0
0
0
0
0
0
727
715
912
1156
1327
1615
1764
1807
1647
1456
1248
1100
1095
1060
1164
1320
1535
1828
1951
1844
1791
1567
1411
1359
1336
1239
1339
1375
1515
1704
1860
2043
1908
1927
1631
1483
1380
1356
1483
1668
1907
1991
1871
1747
1663
1548
1367
1476
1611
1775
1899
1960
1847
1652
1539
1399
1408
1559
1636
1896
2016
2032
1816
1815
0
0
0
0
0
0
0
0
0
0
0
0
0
0
0
0
0
0
0
0
0
0
0
0
664
655
827
1040
1184
1487
1724
1799
1756
1579
1327
1207
1112
1115
1136
1272
1487
1720
1879
1939
1931
1699
1563
1480
1408
1232
1328
1287
1396
1451
1691
1884
1976
1956
1732
1516
1511
1427
1439
1651
1812
2019
2059
1931
1784
1608
1460
1472
1552
1739
1908
1948
1955
1824
1595
1455
1391
1420
1559
1716
1887
1964
1811
1808
0
0
0
0
0
0
0
0
0
0
0
0
0
0
0
0
0
0
0
0
0
0
0
0
699
683
803
987
1104
1312
1571
1743
1800
1724
1503
1220
1020
1060
1064
1175
1419
1512
1768
1996
1895
1891
1696
1440
1391
1280
1247
1255
1308
1364
1555
1712
1800
1940
1760
1656
1484
1408
1420
1520
1719
1940
2051
2024
1920
1759
1595
1516
1503
1615
1756
1948
1960
1879
1711
1579
1488
1376
1451
1540
1643
1744
1716
1715
0
0
0
0
0
0
0
0
0
0
0
0
0
0
0
0
0
0
0
0
0
0
0
0
672
659
763
939
1024
1215
1447
1643
1767
1795
1639
1411
1196
1155
1096
1207
1243
1388
1675
1947
1975
1992
1743
1623
1412
1279
1263
1244
1291
1280
1312
1568
1632
1892
1812
1744
1587
1428
1412
1511
1708
1859
2059
2075
2035
1855
1680
1567
1456
1520
1615
1840
1856
1979
1815
1684
1555
1371
1344
1396
1512
1515
1632
1632
0
0
0
0
0
0
0
0
0
0
0
0
0
0
0
0
0
0
0
0
0
0
0
0
739
724
812
911
996
1059
1304
1472
1656
1783
1692
1504
1263
1183
1120
1156
1272
1340
1663
1896
2012
2116
1935
1783
1596
1428
1384
1296
1347
1335
1320
1496
1532
1788
1871
1875
1796
1579
1491
1624
1715
1884
2072
2092
2171
2016
1799
1687
1471
1483
1532
1708
1855
1980
1987
1860
1695
1484
1447
1428
1500
1459
1432
1431
0
0
0
0
0
0
0
0
0
0
0
0
0
0
0
0
0
0
0
0
0
0
0
0
807
795
851
943
979
1051
1223
1327
1559
1680
1767
1628
1428
1252
1156
1176
1256
1292
1600
1840
1964
2151
2059
1932
1812
1635
1543
1451
1435
1399
1379
1415
1448
1668
1832
1976
1903
1780
1683
1651
1704
1844
1976
2079
2155
2080
1991
1860
1571
1483
1483
1603
1768
1900
2019
1916
1892
1655
1504
1476
1468
1423
1383
1380
0
0
0
0
0
0
0
0
0
0
0
0
0
0
0
0
0
0
0
0
0
0
0
0
875
863
887
939
951
988
1043
1187
1427
1579
1656
1644
1484
1368
1171
1124
1180
1267
1471
1651
1952
2060
2008
1955
1888
1760
1711
1552
1468
1464
1332
1372
1439
1600
1860
1843
2043
1916
1783
1732
1723
1835
1868
1960
2036
2064
2027
1939
1671
1504
1467
1416
1648
1692
1955
1959
1959
1843
1667
1504
1488
1375
1360
1360
0
0
0
0
0
0
0
0
0
0
0
0
0
0
0
0
0
0
0
0
0
0
0
0
923
915
984
944
960
955
972
1043
1239
1368
1532
1592
1519
1443
1276
1151
1167
1152
1359
1511
1739
1911
1851
1812
1739
1675
1707
1619
1523
1472
1356
1344
1276
1432
1616
1707
1959
1940
1924
1767
1604
1596
1596
1748
1832
1887
1956
1916
1652
1551
1432
1332
1504
1540
1744
1920
1920
1868
1651
1519
1416
1295
1271
1271
0
0
0
0
0
0
0
0
0
0
0
0
0
0
0
0
0
0
0
0
0
0
0
0
940
931
1015
1043
980
940
899
924
992
1240
1379
1507
1475
1447
1199
1167
1092
1168
1300
1327
1540
1708
1644
1583
1496
1467
1527
1572
1532
1471
1399
1332
1332
1363
1480
1492
1835
1835
1824
1732
1583
1471
1419
1424
1588
1623
1804
1816
1707
1515
1428
1324
1335
1352
1519
1624
1784
1903
1728
1504
1396
1248
1151
1148
0
0
0
0
0
0
0
0
0
0
0
0
0
0
0
0
0
0
0
0
0
0
0
0
728
723
839
900
743
740
700
683
756
872
1039
1211
1283
1223
1060
940
852
896
1000
1071
1227
1388
1287
1207
1139
1164
1212
1271
1315
1308
1259
1204
1052
1055
1180
1168
1411
1452
1496
1528
1383
1239
1116
1136
1208
1272
1456
1588
1496
1379
1208
1144
1203
1079
1175
1232
1439
1543
1456
1395
1328
1107
951
948
0
0
0
0
0
0
0
0
0
0
0
0
0
0
0
0
0
0
0
0
0
0
0
0