P2
88 80
4095
1544
1548
1692
1839
1912
1943
1999
2012
2076
2095
2135
2031
2095
2140
2112
2219
2175
2183
2263
2216
2228
2332
2304
2420
2416
2279
2363
2376
2391
2403
2459
2383
2311
2395
2455
2368
2428
2439
2403
2475
2420
2415
2451
2439
2468
2455
2476
2452
2471
2467
2447
2372
2463
2487
2499
2512
2499
2416
2384
2440
2315
2235
1987
1995
0
0
0
0
0
0
0
0
0
0
0
0
0
0
0
0
0
0
0
0
0
0
0
0
1887
1888
2043
2252
2275
2320
2331
2343
2375
2435
2428
2436
2435
2484
2456
2543
2539
2492
2611
2596
2640
2683
2648
2695
2755
2679
2720
2684
2736
2736
2763
2744
2711
2719
2740
2720
2755
2791
2731
2727
2764
2755
2728
2716
2755
2795
2743
2799
2799
2808
2783
2736
2712
2804
2803
2851
2811
2731
2692
2756
2652
2568
2371
2376
0
0
0
0
0
0
0
0
0
0
0
0
0
0
0
0
0
0
0
0
0
0
0
0
1984
1991
2252
2371
2456
2519
2563
2580
2615
2635
2660
2587
2604
2656
2664
2763
2735
2712
2824
2804
2796
2879
2855
2939
2895
2823
2891
2936
2907
2920
2999
2991
2911
2988
2979
2891
2955
2988
2895
2988
2963
2939
2979
2959
2975
3032
2936
2972
2967
2983
3000
2955
2991
2999
3004
3048
3019
2980
2915
2984
2828
2744
2572
2575
0
0
0
0
0
0
0
0
0
0
0
0
0
0
0
0
0
0
0
0
0
0
0
0
1956
1967
2335
2471
2524
2627
2659
2599
2655
2723
2695
2751
2727
2747
2772
2887
2871
2800
2920
2915
2891
2972
2975
2968
2995
2987
3080
2996
3028
3032
3036
3039
3023
3060
3087
3003
3056
3068
2987
3068
3044
3024
3040
3060
3055
3075
3023
3056
3095
3088
3095
3083
3127
3099
3060
3144
3160
3048
3043
3080
2980
2872
2583
2587
0
0
0
0
0
0
0
0
0
0
0
0
0
0
0
0
0
0
0
0
0
0
0
0
1947
1952
2268
2508
2524
2516
2643
2596
2707
2628
2683
2692
2655
2764
2728
2771
2879
2832
2911
2900
2928
2899
2916
2963
2919
2935
2904
3012
2959
3007
2916
3020
2996
3087
3044
3027
3115
3068
3028
3027
3107
3024
3047
3028
3052
3003
3027
3067
3131
3092
3080
3103
3100
3068
3080
3103
3075
3104
3100
3035
2967
2788
2619
2620
0
0
0
0
0
0
0
0
0
0
0
0
0
0
0
0
0
0
0
0
0
0
0
0
2015
2019
2332
2507
2512
2551
2596
2575
2695
2643
2624
2660
2672
2804
2768
2751
2800
2831
2815
2879
2836
2907
2892
2904
2871
2875
2891
2984
2964
2932
2903
2996
2983
3015
3063
2964
3079
3028
3023
3012
3044
2995
3028
3024
3011
2995
2980
3027
3063
3044
3047
3100
3116
3068
3020
3051
3068
3012
3047
2952
2895
2808
2576
2580
0
0
0
0
0
0
0
0
0
0
0
0
0
0
0
0
0
0
0
0
0
0
0
0
2012
2020
2372
2487
2527
2560
2571
2667
2680
2704
2747
2680
2700
2823
2755
2764
2843
2832
2887
2891
2911
2891
2884
2928
2972
2940
2899
2955
2932
2991
3012
3039
2899
3056
3071
3020
3124
3040
3075
3063
3087
3035
3028
3079
3067
3036
3087
3108
3099
3091
3072
3100
3124
3095
3060
3048
3108
3068
3084
3008
2960
2803
2631
2635
0
0
0
0
0
0
0
0
0
0
0
0
0
0
0
0
0
0
0
0
0
0
0
0
2008
2016
2248
2475
2495
2535
2612
2639
2687
2628
2740
2692
2672
2804
2752
2771
2751
2804
2836
2843
2832
2904
2895
2916
2912
2919
2912
2983
2932
2992
2951
3064
2927
3015
3040
3031
3084
2999
2992
3024
3039
3019
3020
3047
3095
2983
3048
3052
3075
3100
3024
3056
3116
3012
3063
3024
3092
3036
3059
3011
2939
2800
2571
2572
0
0
0
0
0
0
0
0
0
0
0
0
0
0
0
0
0
0
0
0
0
0
0
0
2027
2032
2252
2456
2500
2563
2528
2652
2619
2640
2700
2687
2711
2743
2711
2755
2803
2768
2828
2827
2856
2868
2867
2912
2883
2923
3047
2908
2948
2928
2960
2992
2936
2943
2955
2992
3004
2943
2939
3024
2912
2995
3048
2987
3047
3019
3063
3108
3011
3059
2959
3031
3028
3011
2976
2971
3052
2995
2968
3004
2868
2823
2567
2572
0
0
0
0
0
0
0
0
0
0
0
0
0
0
0
0
0
0
0
0
0
0
0
0
1972
1979
2263
2423
2451
2567
2536
2628
2664
2648
2679
2720
2667
2740
2727
2743
2756
2736
2815
2731
2855
2872
2848
2860
2927
2880
2976
2883
2879
2891
2972
2911
2884
2915
2951
2876
2952
2904
2911
2948
2955
2956
2984
2983
3056
2968
3012
3071
3012
3056
2903
2952
3032
2956
2959
2891
2992
2975
2883
2916
2864
2716
2575
2575
0
0
0
0
0
0
0
0
0
0
0
0
0
0
0
0
0
0
0
0
0
0
0
0
2024
2031
2271
2463
2504
2572
2568
2631
2640
2648
2695
2736
2716
2748
2679
2771
2767
2795
2840
2792
2859
2868
2852
2956
2931
2912
3008
2971
2912
2915
2952
3008
2912
2912
2992
2991
3007
2987
2999
3011
2984
2988
3092
3000
3064
3027
3019
3067
3075
3108
2975
2972
3044
3004
2975
2959
2991
2984
2947
2968
2872
2759
2631
2635
0
0
0
0
0
0
0
0
0
0
0
0
0
0
0
0
0
0
0
0
0
0
0
0
2011
2019
2300
2424
2472
2520
2564
2591
2644
2636
2652
2664
2640
2744
2696
2727
2808
2788
2775
2843
2808
2880
2867
2892
2892
2887
2992
2916
2868
2915
2951
2980
2940
2956
3012
2940
3028
2995
2952
3023
2936
2979
2980
3007
3031
2968
3000
3048
2983
3031
2967
2996
2992
3015
2971
2903
2999
2956
2860
2948
2844
2756
2560
2564
0
0
0
0
0
0
0
0
0
0
0
0
0
0
0
0
0
0
0
0
0
0
0
0
1967
1971
2263
2407
2415
2491
2587
2551
2583
2552
2604
2632
2567
2696
2716
2668
2715
2784
2816
2748
2831
2796
2819
2859
2876
2876
2908
2923
2892
2940
2879
3008
3003
2991
2980
3036
2960
2944
2976
2988
3020
3043
3039
3035
3012
2927
3035
3052
2980
3016
3019
3036
2988
2959
2919
3024
3056
3044
3000
2936
2807
2671
2495
2500
0
0
0
0
0
0
0
0
0
0
0
0
0
0
0
0
0
0
0
0
0
0
0
0
2036
2040
2271
2404
2499
2532
2552
2556
2659
2571
2587
2660
2588
2695
2708
2719
2727
2811
2752
2712
2847
2788
2852
2879
2896
2895
2883
2855
2904
2944
2943
3004
2908
2948
2975
3020
2996
3028
2979
2963
3000
2995
2996
2956
3007
2908
2987
2988
2920
2991
2995
2988
2940
2984
2924
2968
2928
3028
2960
2916
2816
2691
2484
2488
0
0
0
0
0
0
0
0
0
0
0
0
0
0
0
0
0
0
0
0
0
0
0
0
2003
2004
2244
2476
2452
2555
2600
2564
2660
2668
2688
2672
2627
2715
2724
2736
2775
2768
2824
2783
2868
2831
2871
2859
2920
2968
2960
2968
2928
2975
2924
3011
2963
2988
3024
3008
2991
3016
3032
3056
3052
3004
3035
2992
3039
2967
3044
3015
3007
3060
3048
3023
3003
3040
2931
3003
2967
3048
3008
2995
2875
2715
2527
2531
0
0
0
0
0
0
0
0
0
0
0
0
0
0
0
0
0
0
0
0
0
0
0
0
1991
1995
2236
2439
2440
2508
2532
2536
2560
2603
2623
2676
2616
2708
2640
2727
2739
2772
2804
2768
2792
2780
2835
2832
2887
2935
2924
2896
2972
2951
2904
3023
2935
2980
3035
2996
2976
2956
3020
2999
2999
3011
2999
2956
2967
2975
2979
3048
3004
3020
2996
2983
2996
3023
2939
3007
3007
3047
3012
2963
2847
2711
2484
2491
0
0
0
0
0
0
0
0
0
0
0
0
0
0
0
0
0
0
0
0
0
0
0
0
1912
1919
2211
2412
2387
2531
2508
2515
2580
2668
2623
2659
2640
2639
2592
2655
2684
2736
2731
2720
2707
2759
2783
2808
2900
2871
2967
2831
2907
2896
2868
2935
2868
2919
2848
3023
2980
2935
2928
3008
2975
2959
2948
2988
2996
2944
2968
2943
3000
2991
2963
2984
2952
2948
3007
2919
2899
2939
2863
2887
2844
2768
2451
2455
0
0
0
0
0
0
0
0
0
0
0
0
0
0
0
0
0
0
0
0
0
0
0
0
1895
1899
2255
2387
2427
2608
2511
2516
2532
2616
2639
2627
2671
2664
2596
2667
2695
2723
2752
2756
2807
2835
2859
2807
2827
2868
2911
2836
2895
2880
2831
2908
2856
2911
2887
3019
2923
2904
2887
2943
2923
2955
3008
2903
2948
2931
2928
2920
2971
2980
2919
2940
2896
2927
2972
2924
2928
2975
2876
2899
2783
2723
2527
2527
0
0
0
0
0
0
0
0
0
0
0
0
0
0
0
0
0
0
0
0
0
0
0
0
1952
1959
2295
2407
2463
2619
2579
2503
2572
2655
2687
2635
2640
2732
2704
2695
2763
2739
2804
2772
2792
2835
2780
2852
2883
2880
2900
2879
2940
2939
2915
2928
2864
2919
2903
3028
2988
2952
2952
2991
2931
2935
3044
2999
3007
2951
3000
3011
3015
3011
3015
3068
2991
2968
3048
2947
2951
2971
2924
2967
2856
2727
2567
2567
0
0
0
0
0
0
0
0
0
0
0
0
0
0
0
0
0
0
0
0
0
0
0
0
1875
1883
2303
2396
2491
2560
2527
2495
2519
2627
2675
2624
2599
2664
2660
2675
2743
2699
2775
2676
2704
2779
2820
2800
2824
2855
2908
2867
2875
2888
2863
2896
2880
2924
2868
2964
2932
2880
2880
2948
2876
2928
2975
2951
2952
2940
2984
2888
2952
2992
2859
3007
3044
2940
3023
2884
2952
2931
2920
2896
2808
2739
2472
2472
0
0
0
0
0
0
0
0
0
0
0
0
0
0
0
0
0
0
0
0
0
0
0
0
1943
1943
2211
2388
2364
2448
2548
2532
2543
2544
2560
2640
2643
2652
2651
2752
2624
2663
2723
2704
2827
2815
2748
2808
2844
2843
2919
2832
2856
2939
2919
2852
2851
2875
2936
2932
2972
2999
2960
2912
2899
3071
2956
3031
2999
2983
3008
2988
2864
3027
2955
2972
3007
2972
2955
2983
2903
2940
2952
2863
2836
2748
2535
2536
0
0
0
0
0
0
0
0
0
0
0
0
0
0
0
0
0
0
0
0
0
0
0
0
1971
1976
2244
2404
2424
2427
2571
2548
2575
2600
2596
2624
2668
2648
2659
2688
2671
2659
2747
2748
2780
2815
2783
2799
2904
2847
2859
2916
2920
2896
2903
2915
2823
2887
2920
2980
2871
2980
2963
2884
2884
2988
2884
3044
2896
2955
2967
2972
2884
3007
2935
2940
3024
2952
2939
2931
2907
3004
2955
2860
2807
2755
2564
2568
0
0
0
0
0
0
0
0
0
0
0
0
0
0
0
0
0
0
0
0
0
0
0
0
2008
2011
2232
2456
2383
2484
2599
2544
2616
2583
2608
2640
2676
2720
2676
2720
2764
2687
2755
2796
2839
2835
2800
2847
2883
2868
2964
2879
2832
2911
2967
2959
2911
2899
2967
2995
2952
3011
2912
2928
2920
2975
2983
3008
2947
2972
3016
3011
2948
3020
2947
2975
3072
3003
2979
2975
2944
2956
2975
2860
2895
2740
2580
2584
0
0
0
0
0
0
0
0
0
0
0
0
0
0
0
0
0
0
0
0
0
0
0
0
1992
1996
2251
2392
2443
2443
2563
2524
2551
2563
2584
2623
2672
2692
2652
2655
2775
2679
2768
2775
2864
2823
2811
2860
2859
2820
2912
2891
2927
2928
2916
2944
2903
2900
2939
2955
2963
2948
2911
2947
2927
2999
2947
2960
2940
2963
2984
2992
2935
2995
2987
2979
3020
2944
2971
3035
2932
2979
2908
2907
2840
2716
2500
2504
0
0
0
0
0
0
0
0
0
0
0
0
0
0
0
0
0
0
0
0
0
0
0
0
1967
1971
2192
2319
2339
2451
2359
2487
2455
2484
2571
2591
2571
2640
2584
2624
2755
2676
2687
2711
2748
2796
2747
2840
2843
2823
2819
2816
2803
2844
2904
2919
2932
2939
2872
2840
2903
2903
2911
2844
2899
2884
2903
2852
2879
2932
2960
2884
2932
2960
2928
2948
2971
2963
2884
2932
2900
2908
2836
2855
2771
2652
2355
2363
0
0
0
0
0
0
0
0
0
0
0
0
0
0
0
0
0
0
0
0
0
0
0
0
1948
1951
2187
2356
2375
2479
2455
2504
2531
2512
2564
2592
2552
2667
2640
2684
2724
2700
2700
2800
2715
2783
2759
2820
2803
2792
2836
2791
2795
2835
2875
2911
2875
2928
2863
2863
2919
2904
2936
2856
2896
2891
2907
2855
2907
2875
2959
2951
2912
2955
2920
2924
2947
2964
2912
2887
2896
2887
2788
2836
2804
2635
2384
2391
0
0
0
0
0
0
0
0
0
0
0
0
0
0
0
0
0
0
0
0
0
0
0
0
2016
2019
2264
2351
2368
2492
2439
2495
2548
2531
2587
2660
2579
2683
2675
2696
2691
2719
2752
2792
2748
2872
2724
2824
2855
2864
2860
2836
2836
2871
2899
2911
2872
2936
2892
2920
2936
2952
2960
2879
2944
2920
2939
2972
2940
2899
3012
2928
2987
2988
2975
2984
3040
2996
2947
2904
2987
2963
2839
2904
2783
2635
2428
2435
0
0
0
0
0
0
0
0
0
0
0
0
0
0
0
0
0
0
0
0
0
0
0
0
1916
1920
2191
2347
2324
2407
2431
2516
2523
2552
2603
2624
2535
2663
2659
2604
2708
2660
2744
2708
2748
2787
2724
2827
2779
2831
2852
2852
2803
2880
2871
2932
2896
2919
2891
2888
2924
2911
2915
2900
2919
2891
2924
2903
2915
2903
3035
2940
2896
2928
2904
2931
2980
2948
2887
2887
2911
2960
2827
2899
2779
2687
2408
2415
0
0
0
0
0
0
0
0
0
0
0
0
0
0
0
0
0
0
0
0
0
0
0
0
1892
1896
2159
2248
2323
2408
2435
2460
2539
2531
2595
2576
2551
2660
2627
2643
2667
2684
2716
2736
2795
2796
2743
2751
2788
2804
2788
2820
2868
2868
2924
2903
2875
2880
2915
2864
2972
2900
2891
2944
2900
2924
2955
2895
2871
2916
2971
3015
2959
2912
3011
2923
2975
2983
3012
2979
2991
3004
2812
2896
2819
2655
2447
2452
0
0
0
0
0
0
0
0
0
0
0
0
0
0
0
0
0
0
0
0
0
0
0
0
1892
1892
2244
2356
2392
2467
2463
2540
2576
2543
2664
2556
2579
2671
2671
2639
2699
2684
2756
2751
2791
2828
2751
2823
2879
2832
2804
2800
2824
2840
2883
2908
2928
2863
2944
2899
2971
2911
2887
2963
2956
2908
2968
2863
2864
2991
2956
2975
2907
2984
2948
2967
2983
2987
2988
2911
2984
2983
2828
2852
2847
2667
2451
2459
0
0
0
0
0
0
0
0
0
0
0
0
0
0
0
0
0
0
0
0
0
0
0
0
1956
1963
2251
2332
2404
2508
2540
2512
2564
2579
2627
2611
2623
2740
2660
2695
2736
2716
2736
2779
2840
2804
2740
2796
2820
2828
2876
2832
2860
2831
2919
2876
2880
2960
2979
2904
2988
2948
2948
3044
2919
2976
3000
2931
2948
2967
2956
2983
2983
2988
2944
2996
3044
2995
2972
3023
3027
3092
2872
2948
2900
2699
2452
2460
0
0
0
0
0
0
0
0
0
0
0
0
0
0
0
0
0
0
0
0
0
0
0
0
1891
1892
2187
2268
2412
2476
2483
2523
2591
2563
2595
2579
2584
2719
2663
2672
2720
2672
2784
2764
2760
2811
2775
2852
2799
2835
2864
2791
2871
2891
2928
2932
2879
2880
2927
2952
2960
2940
2967
3007
2963
2947
2947
2940
2980
3039
2959
2956
2996
3016
2988
2984
2963
2984
2968
2944
2979
3052
2856
2880
2847
2700
2404
2412
0
0
0
0
0
0
0
0
0
0
0
0
0
0
0
0
0
0
0
0
0
0
0
0
1879
1879
2167
2308
2332
2387
2455
2456
2484
2504
2540
2467
2591
2620
2580
2567
2659
2660
2752
2711
2668
2752
2707
2752
2855
2804
2820
2803
2848
2856
2860
2896
2864
2983
2944
2823
2960
2884
2883
2856
2907
2924
2924
2864
2972
2864
2904
2999
2955
2963
2884
2919
2980
2892
2940
2864
2871
2948
2904
2828
2879
2644
2440
2444
0
0
0
0
0
0
0
0
0
0
0
0
0
0
0
0
0
0
0
0
0
0
0
0
1924
1924
2147
2355
2367
2460
2488
2472
2511
2563
2544
2576
2603
2623
2603
2603
2672
2663
2756
2744
2659
2787
2731
2759
2839
2815
2848
2819
2839
2891
2864
2879
2864
2947
2939
2828
2927
2864
2919
2908
2880
2927
2928
2920
2919
2859
2900
2903
2960
2939
2883
2916
2940
2831
2908
2819
2836
2952
2855
2843
2808
2648
2388
2395
0
0
0
0
0
0
0
0
0
0
0
0
0
0
0
0
0
0
0
0
0
0
0
0
1932
1935
2244
2391
2360
2427
2532
2560
2504
2548
2516
2583
2619
2655
2647
2679
2724
2696
2791
2747
2767
2835
2783
2804
2872
2828
2876
2828
2880
2935
2928
2924
2915
2951
3007
2891
2983
2900
2935
2936
2919
2971
2972
2908
2947
2823
2988
2999
2995
3015
2983
2928
2964
2871
2987
2859
2915
2944
2939
2883
2868
2703
2460
2460
0
0
0
0
0
0
0
0
0
0
0
0
0
0
0
0
0
0
0
0
0
0
0
0
1848
1851
2123
2364
2380
2435
2504
2420
2507
2547
2560
2591
2619
2600
2603
2623
2640
2707
2735
2780
2683
2792
2775
2775
2847
2808
2892
2811
2888
2851
2884
2892
2900
2911
2908
2864
2911
2864
2944
2883
2924
2915
2916
2867
2987
2868
2940
2960
2940
2952
2916
2928
2948
2903
2943
2852
2884
2911
2888
2843
2835
2700
2475
2476
0
0
0
0
0
0
0
0
0
0
0
0
0
0
0
0
0
0
0
0
0
0
0
0
1872
1875
2112
2267
2320
2463
2403
2464
2480
2471
2492
2552
2584
2619
2603
2643
2584
2608
2667
2736
2755
2728
2759
2844
2815
2776
2835
2811
2900
2856
2760
2859
2867
2816
2919
2928
2939
2856
2895
2896
2896
2952
2939
2911
2948
2900
2904
2964
2911
3019
2912
2968
2964
2880
3004
2892
2815
2903
2836
2776
2756
2664
2427
2432
0
0
0
0
0
0
0
0
0
0
0
0
0
0
0
0
0
0
0
0
0
0
0
0
1852
1855
2171
2356
2356
2495
2463
2512
2591
2520
2520
2587
2615
2608
2583
2639
2687
2604
2695
2767
2704
2784
2764
2827
2736
2795
2812
2815
2919
2824
2855
2883
2896
2872
2935
2968
2944
2887
2899
2927
2923
2952
2907
2948
2900
2859
2943
2996
2876
3008
2923
2940
2955
2903
2988
2876
2851
2848
2864
2780
2772
2651
2404
2408
0
0
0
0
0
0
0
0
0
0
0
0
0
0
0
0
0
0
0
0
0
0
0
0
1903
1904
2160
2360
2380
2443
2428
2472
2567
2515
2611
2640
2607
2651
2631
2716
2699
2635
2751
2764
2772
2755
2788
2907
2791
2823
2796
2840
2864
2879
2895
2907
2931
2876
2960
3007
2980
2956
2948
2980
2915
2971
2932
2943
2944
2964
2952
2980
2911
3051
2996
2972
2984
2884
3039
2908
2843
2908
2884
2827
2835
2644
2416
2423
0
0
0
0
0
0
0
0
0
0
0
0
0
0
0
0
0
0
0
0
0
0
0
0
1815
1812
2180
2328
2363
2420
2423
2511
2540
2436
2576
2615
2571
2667
2623
2660
2643
2644
2672
2720
2744
2783
2748
2811
2795
2864
2835
2840
2876
2884
2836
2916
2919
2855
2952
2876
2992
2903
2931
2959
2903
2915
2940
2947
2932
2923
2932
2940
2911
3016
2992
2923
2988
2891
2995
2923
2875
2931
2851
2779
2751
2635
2439
2444
0
0
0
0
0
0
0
0
0
0
0
0
0
0
0
0
0
0
0
0
0
0
0
0
1888
1887
2087
2284
2303
2364
2440
2416
2468
2464
2511
2523
2588
2579
2635
2680
2624
2779
2680
2671
2763
2711
2743
2820
2711
2776
2812
2844
2836
2807
2820
2911
2864
2916
2820
2887
2931
2932
2875
2955
2927
2868
2872
2936
2975
2904
2847
2927
2863
3003
2900
2880
2911
2908
2952
2923
2859
2832
2772
2884
2732
2599
2400
2404
0
0
0
0
0
0
0
0
0
0
0
0
0
0
0
0
0
0
0
0
0
0
0
0
1915
1915
2156
2303
2332
2424
2492
2455
2516
2535
2596
2552
2664
2639
2632
2703
2623
2787
2663
2740
2767
2719
2767
2832
2803
2823
2799
2871
2819
2807
2787
2900
2880
2920
2891
2880
2935
2900
2907
2935
2968
2920
2876
2963
2932
2872
2867
2940
2867
3024
2884
2831
2931
2932
2904
2871
2947
2823
2759
2864
2756
2591
2428
2432
0
0
0
0
0
0
0
0
0
0
0
0
0
0
0
0
0
0
0
0
0
0
0
0
1971
1971
2180
2380
2391
2472
2524
2492
2560
2507
2599
2639
2627
2735
2715
2691
2679
2823
2716
2696
2768
2744
2824
2855
2799
2824
2863
2880
2883
2883
2871
2900
2907
2944
2916
2988
2911
2975
3000
2972
2964
2959
2939
2987
2980
2923
2903
2967
2928
3004
2892
2951
2983
2983
2927
2936
2940
2828
2808
2872
2860
2664
2459
2463
0
0
0
0
0
0
0
0
0
0
0
0
0
0
0
0
0
0
0
0
0
0
0
0
1960
1963
2156
2363
2480
2535
2551
2559
2587
2576
2664
2663
2692
2720
2719
2747
2743
2807
2764
2775
2811
2828
2843
2884
2879
2900
2895
2924
2871
2911
2864
3031
2984
3011
2979
2968
2959
2996
2951
3056
3032
3044
2963
3012
3048
2955
2972
3024
2987
3063
2967
2952
3012
2999
2980
2975
2992
2947
2871
2955
2840
2748
2472
2476
0
0
0
0
0
0
0
0
0
0
0
0
0
0
0
0
0
0
0
0
0
0
0
0
1783
1783
2032
2291
2223
2328
2355
2360
2420
2355
2460
2488
2464
2499
2531
2500
2559
2559
2595
2587
2639
2668
2611
2651
2679
2652
2759
2712
2752
2739
2703
2775
2688
2736
2768
2792
2759
2783
2840
2783
2855
2835
2812
2832
2795
2747
2867
2880
2791
2800
2800
2892
2771
2843
2844
2755
2764
2779
2715
2763
2608
2540
2340
2343
0
0
0
0
0
0
0
0
0
0
0
0
0
0
0
0
0
0
0
0
0
0
0
0
1844
1844
2135
2344
2372
2372
2447
2440
2504
2508
2572
2595
2500
2591
2663
2611
2679
2695
2704
2647
2724
2760
2688
2784
2755
2768
2815
2788
2832
2839
2787
2843
2751
2820
2864
2859
2815
2839
2884
2871
2867
2876
2912
2875
2836
2880
2931
2916
2800
2935
2875
2964
2827
2871
2863
2884
2796
2840
2824
2760
2728
2555
2447
2448
0
0
0
0
0
0
0
0
0
0
0
0
0
0
0
0
0
0
0
0
0
0
0
0
1875
1875
2144
2324
2355
2467
2500
2388
2579
2459
2587
2607
2536
2567
2644
2600
2631
2664
2776
2612
2715
2787
2700
2756
2815
2727
2839
2811
2880
2847
2827
2883
2792
2808
2900
2875
2923
2892
2887
2904
2904
2935
2899
2928
2859
2916
2920
2923
2871
2908
2875
3036
2852
2916
2955
2860
2864
2864
2816
2811
2712
2651
2440
2447
0
0
0
0
0
0
0
0
0
0
0
0
0
0
0
0
0
0
0
0
0
0
0
0
1856
1855
2151
2363
2312
2440
2424
2400
2520
2460
2591
2588
2531
2607
2579
2600
2648
2647
2739
2704
2739
2823
2752
2771
2764
2723
2808
2844
2815
2840
2776
2839
2775
2800
2915
2875
2883
2900
2916
2852
2891
2891
2876
2868
2851
2875
2903
2932
2860
2915
2875
2967
2864
2900
2960
2904
2828
2859
2860
2827
2743
2624
2347
2351
0
0
0
0
0
0
0
0
0
0
0
0
0
0
0
0
0
0
0
0
0
0
0
0
1864
1863
2115
2292
2363
2419
2424
2444
2500
2544
2468
2560
2611
2575
2504
2667
2647
2679
2699
2683
2651
2731
2735
2735
2724
2736
2744
2899
2816
2772
2847
2912
2844
2819
2852
2852
2928
2912
2920
2903
2884
2900
2904
2900
2904
2860
2908
2923
2868
2828
2895
2904
2944
2924
2875
2948
2884
2939
2783
2768
2791
2620
2344
2352
0
0
0
0
0
0
0
0
0
0
0
0
0
0
0
0
0
0
0
0
0
0
0
0
1875
1872
2160
2319
2427
2483
2504
2543
2523
2580
2544
2620
2644
2603
2623
2664
2679
2747
2712
2735
2719
2803
2727
2768
2764
2780
2760
2864
2811
2776
2828
2923
2795
2867
2815
2835
2923
2892
2923
2879
2872
2951
2800
2899
2936
2876
2863
2955
2932
2852
2852
2892
2911
2924
2927
2955
2900
2884
2812
2751
2820
2631
2399
2404
0
0
0
0
0
0
0
0
0
0
0
0
0
0
0
0
0
0
0
0
0
0
0
0
1924
1928
2140
2331
2376
2503
2527
2460
2595
2643
2516
2652
2604
2632
2604
2747
2644
2764
2744
2780
2739
2808
2787
2812
2800
2756
2788
2907
2852
2851
2896
2916
2868
2884
2907
2919
2952
2911
2944
2943
2935
2999
2919
2951
2960
2928
2960
3024
2931
2900
2863
3003
3015
3051
2920
2972
2919
2948
2836
2792
2815
2655
2435
2440
0
0
0
0
0
0
0
0
0
0
0
0
0
0
0
0
0
0
0
0
0
0
0
0
1879
1879
2136
2311
2427
2440
2475
2440
2491
2544
2556
2588
2619
2628
2588
2699
2660
2655
2704
2668
2728
2715
2712
2796
2783
2827
2795
2895
2799
2856
2839
2903
2863
2856
2879
2900
2887
2832
2892
2939
2872
2904
2887
2887
2859
2915
2919
2952
2955
2884
2916
2919
2971
2932
2900
2940
2851
2947
2796
2812
2799
2631
2440
2444
0
0
0
0
0
0
0
0
0
0
0
0
0
0
0
0
0
0
0
0
0
0
0
0
1888
1888
2200
2355
2340
2463
2491
2475
2488
2567
2564
2591
2544
2636
2591
2636
2695
2695
2704
2736
2727
2784
2715
2832
2812
2860
2811
2772
2819
2932
2828
2891
2907
2956
2939
2804
2968
3007
2887
2900
2940
2916
2892
2964
2964
2936
2992
2979
2940
3028
2859
3071
2976
2888
2987
2960
2903
2963
2876
2899
2815
2651
2476
2479
0
0
0
0
0
0
0
0
0
0
0
0
0
0
0
0
0
0
0
0
0
0
0
0
1947
1947
2155
2391
2383
2428
2495
2512
2503
2580
2539
2587
2615
2679
2635
2696
2739
2751
2728
2739
2779
2740
2760
2828
2820
2820
2779
2808
2816
2863
2836
2859
2824
2924
2947
2803
2940
2964
2916
2951
2904
2951
2884
2955
2944
2907
2971
2972
2928
2991
2875
3019
3008
2864
3051
3023
2888
2907
2892
2863
2843
2703
2459
2460
0
0
0
0
0
0
0
0
0
0
0
0
0
0
0
0
0
0
0
0
0
0
0
0
1940
1940
2239
2371
2391
2503
2507
2499
2540
2651
2571
2636
2560
2728
2588
2747
2748
2719
2700
2731
2755
2839
2768
2848
2872
2804
2867
2828
2796
2915
2880
2928
2880
2955
2979
2832
2956
3016
2963
2927
2967
2948
2903
2972
2959
2920
3000
3051
2988
2967
2932
3048
2979
2932
2995
3015
2956
2999
2904
2884
2800
2679
2460
2463
0
0
0
0
0
0
0
0
0
0
0
0
0
0
0
0
0
0
0
0
0
0
0
0
1871
1868
2263
2363
2387
2404
2495
2504
2484
2512
2555
2603
2516
2647
2636
2667
2696
2672
2755
2696
2743
2787
2728
2820
2835
2824
2831
2819
2864
2815
2800
2851
2847
2891
2952
2839
2935
2923
2916
2912
2903
2896
2864
2940
2900
2892
2916
2943
2868
2972
2903
2975
2960
2940
2999
2912
2916
2940
2843
2823
2843
2676
2455
2456
0
0
0
0
0
0
0
0
0
0
0
0
0
0
0
0
0
0
0
0
0
0
0
0
1936
1936
2200
2295
2332
2404
2327
2420
2484
2452
2492
2620
2540
2623
2523
2620
2619
2612
2695
2716
2675
2672
2771
2775
2708
2852
2831
2764
2844
2788
2856
2840
2792
2815
2847
2844
2919
2844
2859
2876
2919
2876
2903
2847
2924
2904
2948
2875
2919
2991
2960
2959
2936
2903
2943
2915
2915
2923
2856
2819
2752
2615
2480
2483
0
0
0
0
0
0
0
0
0
0
0
0
0
0
0
0
0
0
0
0
0
0
0
0
1967
1964
2212
2303
2387
2456
2432
2519
2512
2444
2544
2539
2583
2659
2556
2688
2704
2683
2700
2707
2744
2743
2779
2771
2740
2811
2839
2772
2863
2816
2827
2875
2780
2839
2779
2839
2884
2803
2840
2896
2884
2831
2915
2883
2920
2920
2935
2907
2968
2907
2983
2975
2923
2872
2948
2879
2924
2880
2812
2820
2768
2671
2407
2411
0
0
0
0
0
0
0
0
0
0
0
0
0
0
0
0
0
0
0
0
0
0
0
0
1951
1951
2227
2335
2395
2527
2412
2504
2552
2491
2583
2587
2584
2668
2583
2723
2700
2752
2739
2772
2712
2807
2800
2840
2764
2827
2943
2867
2832
2775
2831
2864
2811
2864
2831
2879
2960
2875
2824
2928
2887
2935
2907
2891
2939
2948
2916
2911
2928
2944
2972
2944
2952
2943
2952
2907
2952
2928
2811
2852
2836
2688
2508
2512
0
0
0
0
0
0
0
0
0
0
0
0
0
0
0
0
0
0
0
0
0
0
0
0
1875
1872
2200
2335
2439
2468
2352
2456
2556
2455
2536
2559
2527
2639
2599
2568
2687
2672
2763
2699
2632
2748
2751
2783
2768
2820
2879
2876
2864
2787
2832
2819
2788
2831
2828
2843
2855
2852
2859
2880
2904
2872
2876
2888
2943
2892
2923
2863
2939
2940
2916
2948
2892
2931
2951
2935
2903
2895
2788
2859
2803
2680
2455
2455
0
0
0
0
0
0
0
0
0
0
0
0
0
0
0
0
0
0
0
0
0
0
0
0
1831
1831
2132
2308
2344
2439
2420
2439
2491
2520
2523
2556
2524
2635
2619
2608
2672
2719
2676
2691
2720
2687
2747
2832
2859
2804
2884
2800
2791
2783
2823
2971
2876
2919
2852
2852
2832
2883
2884
2896
2859
2928
2868
2867
2923
2920
2951
2976
2967
2928
2980
2952
3011
2948
3020
2915
2932
2915
2896
2916
2871
2660
2464
2467
0
0
0
0
0
0
0
0
0
0
0
0
0
0
0
0
0
0
0
0
0
0
0
0
1887
1887
2191
2352
2343
2500
2455
2487
2507
2540
2540
2627
2560
2623
2648
2620
2716
2684
2696
2759
2771
2736
2748
2812
2807
2804
2871
2824
2836
2844
2887
2896
2788
2868
2880
2868
2895
2860
2876
2859
2848
2932
2895
2895
2903
2955
2915
2967
2880
2940
2920
2979
2964
2948
2980
2955
2943
2919
2895
2927
2799
2664
2464
2468
0
0
0
0
0
0
0
0
0
0
0
0
0
0
0
0
0
0
0
0
0
0
0
0
1920
1920
2179
2384
2404
2427
2459
2484
2555
2595
2539
2607
2608
2688
2656
2675
2747
2731
2723
2771
2743
2747
2788
2859
2847
2811
2859
2904
2864
2935
2859
2968
2903
2895
2939
2971
2996
2884
2948
2927
2903
2948
2852
2891
2911
2952
2979
3011
2900
2959
2956
3023
2971
3035
2984
2924
2963
2911
2960
2920
2835
2671
2492
2496
0
0
0
0
0
0
0
0
0
0
0
0
0
0
0
0
0
0
0
0
0
0
0
0
1872
1872
2187
2331
2343
2416
2484
2435
2520
2539
2524
2591
2571
2656
2588
2687
2672
2684
2699
2760
2755
2735
2784
2844
2864
2816
2847
2844
2816
2860
2824
2968
2892
2872
2896
2923
2907
2924
2883
2935
2928
2972
2847
2863
2931
2947
2956
3016
2960
2956
2951
2976
2964
2960
2996
2964
2935
2907
2903
2867
2808
2620
2491
2492
0
0
0
0
0
0
0
0
0
0
0
0
0
0
0
0
0
0
0
0
0
0
0
0
1868
1871
2071
2351
2340
2455
2428
2436
2539
2480
2591
2528
2560
2580
2632
2644
2723
2667
2796
2767
2759
2796
2731
2808
2799
2804
2839
2812
2872
2880
2835
2855
2732
2879
2795
2864
2847
2840
2848
2951
2916
2892
2855
2844
2931
2932
2968
2863
2867
3027
2860
2975
2920
2960
2995
2848
2900
2963
2911
2860
2799
2675
2452
2459
0
0
0
0
0
0
0
0
0
0
0
0
0
0
0
0
0
0
0
0
0
0
0
0
1900
1900
2143
2328
2383
2468
2500
2452
2539
2535
2592
2583
2540
2664
2664
2684
2724
2703
2767
2783
2772
2791
2795
2768
2847
2772
2880
2783
2855
2867
2863
2844
2848
2844
2836
2848
2828
2816
2824
2912
2847
2883
2800
2892
2936
2920
2924
2859
2903
3015
2860
2940
2935
2952
2968
2852
2847
2896
2892
2819
2772
2643
2424
2431
0
0
0
0
0
0
0
0
0
0
0
0
0
0
0
0
0
0
0
0
0
0
0
0
1887
1884
2151
2415
2364
2480
2499
2504
2548
2532
2656
2579
2580
2643
2656
2687
2748
2712
2799
2831
2864
2832
2815
2844
2807
2780
2892
2800
2900
2884
2884
2904
2835
2847
2867
2912
2843
2796
2887
2903
2876
2895
2931
2916
2968
2955
3024
2935
2868
3076
2900
2960
2980
2931
2975
2916
2940
2948
2943
2839
2832
2663
2496
2499
0
0
0
0
0
0
0
0
0
0
0
0
0
0
0
0
0
0
0
0
0
0
0
0
1884
1884
2188
2363
2351
2475
2536
2472
2535
2568
2551
2600
2595
2608
2607
2663
2708
2652
2756
2768
2760
2792
2776
2839
2836
2788
2879
2832
2867
2815
2855
2883
2832
2860
2852
2903
2872
2819
2900
2872
2875
2892
2852
2916
2935
2940
2972
2867
2907
2968
2899
2927
2916
2923
2952
2879
2915
2911
2876
2847
2832
2692
2467
2472
0
0
0
0
0
0
0
0
0
0
0
0
0
0
0
0
0
0
0
0
0
0
0
0
1876
1875
2123
2279
2331
2371
2443
2524
2544
2511
2560
2564
2636
2648
2624
2640
2688
2743
2764
2719
2795
2764
2760
2860
2892
2767
2848
2799
2919
2855
2916
2928
2852
2944
2859
2867
2935
2919
2879
2919
2940
2924
2812
2915
2955
2967
2916
2931
2928
2916
2879
2947
2936
2947
2976
2935
2879
2991
2883
2892
2864
2747
2495
2500
0
0
0
0
0
0
0
0
0
0
0
0
0
0
0
0
0
0
0
0
0
0
0
0
1884
1883
2215
2315
2344
2448
2531
2503
2608
2547
2548
2615
2663
2648
2655
2652
2764
2748
2775
2732
2835
2764
2812
2859
2868
2783
2828
2823
2860
2875
2879
2928
2851
2956
2832
2928
2931
2875
2928
2932
2944
2911
2875
2867
2916
3015
2896
2943
2916
2935
2912
2900
2884
2964
2947
2927
2892
2956
2876
2907
2883
2696
2492
2496
0
0
0
0
0
0
0
0
0
0
0
0
0
0
0
0
0
0
0
0
0
0
0
0
1951
1951
2207
2395
2384
2488
2524
2568
2527
2607
2624
2636
2684
2660
2699
2711
2708
2799
2811
2731
2843
2835
2843
2876
2888
2784
2896
2884
2939
2952
2923
2968
2831
2987
2891
2935
2924
2904
2931
2908
2960
2935
2884
2907
3012
3035
2892
2952
2955
2920
2907
2972
2967
2988
3011
2943
2935
2992
2904
2952
2859
2764
2519
2520
0
0
0
0
0
0
0
0
0
0
0
0
0
0
0
0
0
0
0
0
0
0
0
0
1880
1879
2140
2339
2348
2452
2528
2539
2551
2571
2572
2655
2648
2676
2667
2679
2724
2752
2748
2751
2819
2775
2831
2900
2903
2755
2884
2864
2928
2836
2904
2923
2912
2947
2891
2856
2979
2947
2924
2999
2943
2971
2947
2903
2939
2936
2903
2940
2924
2943
2955
2907
2967
2996
2947
2924
2924
2911
2928
2915
2840
2740
2468
2468
0
0
0
0
0
0
0
0
0
0
0
0
0
0
0
0
0
0
0
0
0
0
0
0
1900
1896
2140
2363
2419
2431
2492
2524
2572
2611
2600
2551
2516
2604
2604
2644
2780
2655
2739
2803
2683
2795
2811
2772
2851
2815
2824
2848
2896
2895
2927
2900
2828
2936
2836
2899
2884
2884
2915
2907
2908
2903
2883
2852
2887
2895
2919
2944
2928
2944
2896
2940
2908
2896
2892
2927
2963
2908
2924
2867
2783
2671
2447
2451
0
0
0
0
0
0
0
0
0
0
0
0
0
0
0
0
0
0
0
0
0
0
0
0
1887
1887
2148
2379
2432
2487
2524
2528
2575
2643
2651
2652
2619
2675
2648
2740
2700
2680
2728
2812
2739
2816
2732
2843
2824
2823
2867
2867
2903
2855
2828
2936
2812
2972
2864
2911
2887
2859
2884
2912
2920
2852
2923
2864
2883
2856
2888
2956
2931
2936
2904
2940
2840
2932
2871
2911
2956
2864
2872
2839
2816
2628
2491
2491
0
0
0
0
0
0
0
0
0
0
0
0
0
0
0
0
0
0
0
0
0
0
0
0
1908
1907
2179
2379
2467
2459
2551
2512
2551
2648
2628
2643
2624
2676
2672
2736
2803
2716
2831
2820
2780
2864
2807
2856
2888
2868
2908
2868
2943
2907
2868
2967
2860
2967
2936
2952
2963
2900
2908
2996
2947
2951
2964
2880
2951
2899
2879
2996
2919
2960
2924
2964
2944
2956
2956
2943
2960
2920
2939
2883
2863
2664
2428
2428
0
0
0
0
0
0
0
0
0
0
0
0
0
0
0
0
0
0
0
0
0
0
0
0
1895
1892
2175
2363
2439
2499
2567
2519
2575
2580
2663
2667
2672
2668
2659
2707
2783
2724
2835
2828
2751
2875
2816
2827
2884
2868
2892
2892
2912
2911
2916
2924
2872
2936
2923
2956
2924
2919
2932
2936
2911
2919
2927
2895
2923
2891
2943
3023
2927
2935
2920
2959
2951
2928
2956
2867
2955
2904
2875
2860
2811
2668
2468
2472
0
0
0
0
0
0
0
0
0
0
0
0
0
0
0
0
0
0
0
0
0
0
0
0
1864
1860
2131
2323
2404
2475
2463
2532
2596
2579
2575
2616
2640
2715
2643
2672
2724
2724
2788
2719
2811
2791
2752
2808
2863
2872
2896
2844
2844
2960
2876
2919
2944
2956
3028
2852
2996
2911
2891
2932
2956
3007
2943
2896
2891
2900
2931
3000
2936
2928
2947
2875
2988
2839
2944
2875
2903
2919
2919
2843
2852
2664
2531
2532
0
0
0
0
0
0
0
0
0
0
0
0
0
0
0
0
0
0
0
0
0
0
0
0
1780
1772
2056
2200
2328
2368
2399
2411
2484
2439
2460
2495
2532
2624
2627
2600
2635
2568
2660
2612
2635
2680
2612
2675
2719
2731
2783
2736
2743
2811
2796
2828
2736
2812
2835
2724
2852
2811
2859
2824
2795
2843
2760
2803
2799
2772
2828
2868
2764
2844
2827
2735
2844
2744
2787
2808
2763
2775
2680
2719
2707
2568
2424
2427
0
0
0
0
0
0
0
0
0
0
0
0
0
0
0
0
0
0
0
0
0
0
0
0
1668
1660
1891
2088
2156
2228
2220
2236
2256
2360
2324
2359
2348
2448
2379
2451
2416
2479
2543
2407
2439
2500
2455
2515
2556
2576
2596
2608
2595
2608
2659
2647
2687
2703
2680
2524
2724
2635
2635
2656
2664
2667
2616
2580
2648
2575
2644
2651
2644
2596
2643
2603
2611
2563
2612
2564
2600
2664
2567
2483
2519
2392
2247
2247
0
0
0
0
0
0
0
0
0
0
0
0
0
0
0
0
0
0
0
0
0
0
0
0
1360
1348
1536
1712
1695
1815
1844
1863
1923
1924
1955
2008
2023
2044
2027
2036
2004
2047
2123
2076
2103
2160
2095
2136
2176
2227
2252
2243
2220
2236
2256
2308
2220
2232
2308
2176
2287
2204
2216
2300
2296
2287
2228
2243
2227
2196
2264
2311
2244
2219
2171
2180
2279
2148
2223
2163
2203
2215
2123
2156
2208
2055
1884
1883
0
0
0
0
0
0
0
0
0
0
0
0
0
0
0
0
0
0
0
0
0
0
0
0
